<?xml version="1.0" standalone="no"?>
<!DOCTYPE svg PUBLIC "-//W3C//DTD SVG 1.1//EN" "http://www.w3.org/Graphics/SVG/1.1/DTD/svg11.dtd" >
<svg xmlns="http://www.w3.org/2000/svg" xmlns:xlink="http://www.w3.org/1999/xlink" version="1.1">
<metadata>
Created by FontForge 20200427 at Thu Feb  5 09:34:59 2015
 By www
Copyright (c) 2004-2010, Nick Curtis. All Rights Reserved. Unauthorized duplication or redistribution is expressly prohibited.
</metadata>
<defs>
<font id="StoneSoupNFW01-Regular" horiz-adv-x="1249" >
  <font-face 
    font-family="StoneSoupNFW01-Regular"
    font-weight="400"
    font-stretch="normal"
    units-per-em="2048"
    panose-1="1 0 0 0 0 0 0 0 0 0"
    ascent="1638"
    descent="-410"
    x-height="1358"
    cap-height="1473"
    bbox="-176 -506 1731 1917"
    underline-thickness="102"
    underline-position="-358"
    unicode-range="U+000D-2122"
  />
<missing-glyph horiz-adv-x="410" 
 />
    <glyph glyph-name=".notdef" horiz-adv-x="410" 
 />
    <glyph glyph-name="glyph1" horiz-adv-x="0" 
 />
    <glyph glyph-name="glyph1" horiz-adv-x="0" 
 />
    <glyph glyph-name="uni000D" unicode="&#xd;" horiz-adv-x="410" 
 />
    <glyph glyph-name="space" unicode=" " horiz-adv-x="410" 
 />
    <glyph glyph-name="exclam" unicode="!" horiz-adv-x="535" 
d="M301 297l-158 25l199 1208l156 -27zM334 80q0 -31 -11 -58q-12 -27 -31 -48q-20 -20 -47 -32q-28 -12 -59 -12t-58 12t-47 32q-21 21 -32 48q-12 27 -12 58t12 58q11 26 32 46q20 20 47 32q27 11 58 11t58 -11q27 -12 47 -32t32 -46z" />
    <glyph glyph-name="quotedbl" unicode="&#x22;" horiz-adv-x="627" 
d="M379 1102l-137 78l211 370l137 -80zM174 1143l-137 78l211 370l137 -80z" />
    <glyph glyph-name="numbersign" unicode="#" horiz-adv-x="1044" 
d="M985 899l-213 35l-24 -148l217 -34l-23 -158l-221 35l-59 -365l-156 25l59 366l-147 23l-68 -414l-157 25l69 416l-225 36l22 158l228 -39l24 150l-231 37l22 157l234 -39l55 334l156 -26l-55 -334l147 -23l63 383l156 -26l-61 -383l211 -35zM467 983l-25 -147l148 -25
l24 147z" />
    <glyph glyph-name="dollar" unicode="$" horiz-adv-x="440" 
d="M403 526q0 -57 -15 -112q-16 -55 -48 -105l31 -307l-158 -16l-18 192q-54 -31 -113 -43l-35 154q44 10 80 32q36 21 62 52t41 71q14 39 14 84q0 53 -15 100q-16 46 -39 90q-23 43 -49 85q-27 42 -50 87q-23 44 -38 93q-16 48 -16 104q0 48 12 89t37 81l-27 267l158 14
l14 -145l70 30l53 -149q-31 -12 -59 -28q-29 -17 -50 -39q-22 -23 -35 -51q-13 -29 -13 -64q0 -43 16 -83q15 -40 38 -81q22 -42 49 -85q27 -44 50 -92q22 -49 38 -104z" />
    <glyph glyph-name="percent" unicode="%" horiz-adv-x="1268" 
d="M604 1178q0 -61 -18 -125t-54 -117t-88 -87q-53 -34 -122 -34t-122 34q-54 33 -90 86t-54 117q-19 64 -19 126q0 60 19 124q19 63 56 116q36 52 89 86t121 34q67 0 120 -34q52 -34 88 -86q36 -53 55 -116zM444 1178q0 26 -6 61q-7 34 -22 66q-15 31 -38 53t-56 22
t-57 -22t-39 -53q-15 -32 -22 -66q-7 -35 -7 -61t7 -61t22 -66q15 -32 39 -54t57 -22t56 22t38 54q15 31 22 66zM410 -31l-148 62l598 1442l146 -62zM1231 362q0 -60 -18 -124q-18 -65 -54 -117q-36 -53 -89 -87t-122 -34t-121 34q-53 34 -89 87q-36 52 -54 117
q-18 64 -18 124t19 124q18 64 54 117q36 52 89 86q52 34 120 34q67 0 120 -34t89 -86q36 -53 55 -117zM1073 362q0 27 -7 62t-22 67q-15 31 -38 53q-24 21 -58 21t-57 -21q-24 -22 -39 -53q-15 -32 -22 -67t-7 -62q0 -26 7 -60q7 -35 23 -66q15 -32 39 -54q23 -22 56 -22
t57 22q23 22 39 54q15 31 22 66z" />
    <glyph glyph-name="ampersand" unicode="&#x26;" horiz-adv-x="956" 
d="M768 -45l-152 -41l-41 147q-49 -29 -105 -46q-57 -17 -114 -17q-82 0 -142 31q-60 30 -99 82q-40 52 -59 120q-19 67 -19 142q0 83 22 170q22 86 60 168q37 82 87 156t107 132q-17 56 -33 116q-16 59 -16 118q0 53 15 107q14 53 43 96q29 42 74 69q44 27 104 27
q45 0 80 -16q35 -17 59 -45q24 -29 37 -67q12 -38 12 -81q0 -60 -16 -110q-16 -51 -43 -95q-27 -45 -63 -85q-36 -41 -77 -81l168 -596q54 87 79 185q24 98 24 200q0 74 -12 148l155 29q8 -44 13 -87q4 -44 4 -88q0 -78 -12 -156q-13 -78 -39 -152t-66 -141
q-40 -68 -94 -126zM496 1374q-21 0 -35 -16t-23 -38t-12 -46q-4 -24 -4 -39q0 -29 6 -56t14 -55q17 19 33 44q15 24 27 52q12 27 19 55t7 54q0 19 -4 32zM365 815q-33 -44 -64 -97q-31 -54 -54 -112q-24 -58 -38 -117q-14 -60 -14 -116q0 -40 8 -79q7 -39 26 -69
q18 -31 49 -50t78 -19t92 19q45 18 82 46z" />
    <glyph glyph-name="quotesingle" unicode="'" horiz-adv-x="373" 
d="M174 1143l-137 78l211 370l137 -80z" />
    <glyph glyph-name="parenleft" unicode="(" horiz-adv-x="453" 
d="M297 -213q-74 81 -124 190t-80 229t-43 242t-13 228q0 108 13 230q13 121 44 241q30 119 80 228t123 192l119 -107q-62 -70 -104 -167t-67 -204q-26 -107 -37 -214q-11 -108 -11 -199t11 -198q11 -108 37 -215q25 -107 67 -204q42 -98 104 -168z" />
    <glyph glyph-name="parenright" unicode=")" horiz-adv-x="453" 
d="M416 676q0 -106 -13 -228q-14 -122 -44 -242q-31 -120 -80 -229q-50 -109 -123 -190l-119 104q62 70 104 168q42 97 68 204q25 107 36 215q11 107 11 198t-11 199q-11 107 -36 214q-26 107 -68 204t-104 167l119 107q73 -83 123 -192q49 -109 80 -228q30 -120 44 -241z
" />
    <glyph glyph-name="asterisk" unicode="*" horiz-adv-x="846" 
d="M514 1151l45 -309l-194 245l-281 -141l174 262l-221 224l303 -84l145 278l13 -315l311 -49z" />
    <glyph glyph-name="plus" unicode="+" horiz-adv-x="1077" 
d="M618 631v-422h-159v422h-422v160h422v421h159v-421h422v-160h-422z" />
    <glyph glyph-name="comma" unicode="," horiz-adv-x="379" 
d="M342 25q0 -54 -21 -102t-56 -84q-36 -35 -83 -56q-48 -21 -102 -21v160q18 0 37 7t33 20q-48 11 -80 49q-33 38 -33 88q0 28 12 54q11 26 30 45t45 31q25 11 54 11q42 0 73 -17q31 -18 52 -46q20 -29 30 -65z" />
    <glyph glyph-name="hyphen" unicode="-" horiz-adv-x="371" 
d="M37 631v160h297v-160h-297z" />
    <glyph glyph-name="period" unicode="." horiz-adv-x="373" 
d="M336 78q0 -31 -12 -58t-32 -48q-21 -20 -48 -32t-58 -12t-58 12t-47 32q-21 21 -32 48q-12 27 -12 58t12 58q12 26 33 46q20 20 47 32q27 11 57 11q31 0 58 -11q27 -12 48 -32q20 -20 32 -46z" />
    <glyph glyph-name="slash" unicode="/" horiz-adv-x="596" 
d="M199 -211h-162l362 1749h160z" />
    <glyph glyph-name="zero" unicode="0" horiz-adv-x="1030" 
d="M993 729q0 -70 -12 -144q-13 -74 -39 -143q-26 -70 -65 -132q-39 -63 -92 -109q-53 -47 -120 -74q-68 -27 -149 -27q-82 0 -149 27q-68 27 -121 73t-92 108q-40 62 -66 132t-38 144q-13 74 -13 145q0 67 14 140t42 143q27 70 68 133q40 63 94 110q53 47 119 75
q65 28 142 28t143 -28q65 -28 118 -75q53 -48 94 -111q40 -63 67 -133t41 -142zM834 729q0 47 -7 100q-8 53 -24 106q-17 52 -42 100q-25 47 -60 84q-36 36 -82 58q-46 21 -103 21q-58 0 -104 -21q-46 -22 -81 -58q-36 -36 -61 -83q-25 -48 -41 -100q-17 -53 -24 -106
q-8 -53 -8 -101q0 -47 8 -100q7 -54 24 -106q16 -53 41 -101t61 -84q35 -37 81 -58q46 -22 104 -22q57 0 103 22t82 59q35 36 60 84t42 101q16 52 24 105z" />
    <glyph glyph-name="one" unicode="1" horiz-adv-x="463" 
d="M266 61l-35 1143l-71 -84l-123 103l190 223l154 6l45 -1386z" />
    <glyph glyph-name="two" unicode="2" horiz-adv-x="616" 
d="M580 1151q0 -60 -12 -119q-13 -59 -33 -114l-275 -773l217 -4l-4 -159l-436 12l348 977q16 43 27 90q10 46 10 92q0 51 -16 92q-17 41 -46 69q-30 28 -71 43q-42 15 -92 15h-21q-9 0 -20 -2l-21 156q16 2 31 3t29 1q85 0 156 -27t122 -76q51 -50 79 -120z" />
    <glyph glyph-name="three" unicode="3" horiz-adv-x="692" 
d="M160 141q70 8 132 40q61 31 107 81q45 49 71 113q26 63 26 135t-27 137q-27 64 -73 114q-47 49 -109 81q-63 31 -135 37l12 157h14q37 0 68 11t54 32q22 21 35 50t13 65q0 34 -12 63t-32 50q-21 21 -49 33q-29 12 -62 12q-43 0 -78 -19l-78 137q35 20 76 31q40 10 82 10
q64 0 121 -25q57 -26 100 -69t68 -101q24 -58 24 -122q0 -68 -27 -129q-27 -62 -78 -107q58 -36 105 -85q46 -49 79 -107q33 -59 51 -124q17 -66 17 -134q0 -101 -37 -191q-38 -91 -103 -161q-65 -71 -152 -116q-87 -46 -187 -56z" />
    <glyph glyph-name="four" unicode="4" horiz-adv-x="674" 
d="M496 420l22 -379l-160 -8l-20 373l-301 -29l235 1077l166 8l49 -884l136 14l14 -158zM311 887l-73 -332l92 8z" />
    <glyph glyph-name="five" unicode="5" horiz-adv-x="702" 
d="M172 141q70 8 131 40q61 31 106 81q45 49 71 112t26 134q0 70 -26 137q-27 66 -73 118q-47 52 -109 84q-63 32 -136 32h-125l149 630h363v-157h-238l-75 -324q92 -18 171 -66q78 -48 136 -117t91 -155q32 -86 32 -180q0 -101 -37 -192q-37 -92 -102 -162
q-65 -71 -152 -116q-88 -46 -189 -56z" />
    <glyph glyph-name="six" unicode="6" horiz-adv-x="729" 
d="M692 545q0 -50 -6 -109q-7 -60 -22 -120q-15 -61 -39 -117q-25 -57 -61 -100q-37 -44 -86 -70q-49 -27 -113 -27q-63 0 -112 27q-49 26 -85 70q-37 43 -62 100q-25 56 -40 117q-16 60 -22 120q-7 59 -7 109q0 77 5 161q5 83 17 167t33 165q20 80 51 152q22 52 54 104
q31 52 72 94q41 41 93 67q51 26 115 26v-158q-33 0 -61 -18t-52 -47t-43 -65q-20 -37 -35 -75q-16 -38 -27 -73t-17 -60q28 17 60 25q31 8 63 8q57 0 104 -22q46 -22 83 -58q36 -37 63 -85q26 -48 43 -100q17 -53 26 -107zM535 545q0 24 -4 57q-4 32 -12 67q-9 35 -22 70
q-14 34 -33 61t-43 44q-25 16 -56 16t-55 -16q-25 -17 -44 -44t-32 -61q-13 -35 -21 -70t-12 -67q-4 -33 -4 -57q0 -25 3 -63t11 -80q7 -43 19 -85q12 -43 31 -77q19 -35 45 -56q25 -22 59 -22t60 22q26 21 45 56q19 34 32 77q12 42 20 85q7 42 10 80z" />
    <glyph glyph-name="seven" unicode="7" horiz-adv-x="547" 
d="M248 -35l-158 27l229 1335h-282v158h473z" />
    <glyph glyph-name="eight" unicode="8" horiz-adv-x="856" 
d="M819 537q0 -56 -11 -115q-11 -60 -33 -116q-22 -57 -55 -108t-76 -89t-97 -60q-55 -22 -119 -22t-118 22q-55 22 -98 60t-76 89t-55 108q-22 56 -33 116q-11 59 -11 115q0 61 12 123q11 61 35 119q23 57 59 108t84 90q-37 38 -56 87t-19 103q0 57 22 108q21 50 59 88
q37 37 88 59q50 22 107 22t107 -22t87 -59q37 -38 59 -88q21 -51 21 -108q0 -52 -19 -102t-54 -88q48 -39 84 -90t60 -108q23 -58 35 -119zM545 1167q0 25 -9 47q-9 21 -25 37t-37 26q-21 9 -46 9t-46 -9q-22 -10 -37 -26q-16 -16 -25 -37q-9 -22 -9 -47t9 -47q8 -22 24 -38
q15 -16 37 -25q21 -10 47 -10t48 10q21 9 37 25q15 16 24 38zM659 537q0 32 -6 71q-6 38 -18 78q-13 39 -31 76q-19 36 -45 65q-26 28 -58 45q-33 17 -73 17q-62 0 -105 -36q-44 -37 -72 -91t-41 -115t-13 -110q0 -33 6 -72q5 -40 17 -79t31 -75q18 -36 44 -64
q25 -28 58 -44q33 -17 75 -17q59 0 103 37q43 37 72 91q28 54 42 115z" />
    <glyph glyph-name="nine" unicode="9" horiz-adv-x="729" 
d="M692 938q0 -77 -5 -160q-5 -84 -17 -168t-32 -165q-21 -81 -52 -152q-23 -52 -54 -104t-72 -93q-41 -42 -92 -68q-52 -26 -116 -26v158q33 0 62 18q28 18 52 47t44 66q19 36 34 74q15 37 26 72q10 35 17 61q-27 -17 -58 -25q-32 -8 -64 -8q-57 0 -104 22t-83 59
q-37 36 -63 84q-27 48 -44 101q-17 52 -25 106q-9 53 -9 101q0 50 7 110q6 59 21 120q15 60 40 117q25 56 62 100q36 43 85 70q49 26 113 26q63 0 112 -26q49 -27 86 -70q36 -44 61 -100q24 -57 40 -117q15 -61 22 -120zM532 938q0 24 -3 62t-10 81q-8 42 -20 85t-30 78
q-19 34 -44 56q-26 21 -60 21q-35 0 -61 -21q-26 -22 -44 -56q-19 -35 -31 -78q-13 -43 -20 -85q-8 -43 -11 -81t-3 -62t4 -56q4 -33 13 -68q8 -35 21 -69q13 -35 32 -62t44 -43q25 -17 56 -17t56 17q24 16 43 43q18 27 31 62q13 34 21 69t12 68z" />
    <glyph glyph-name="colon" unicode=":" horiz-adv-x="373" 
d="M336 705q0 -31 -12 -58t-32 -47q-21 -21 -48 -33t-58 -12t-58 12t-47 33q-21 20 -32 47q-12 27 -12 58q0 30 12 57t33 47q20 20 47 32q27 11 57 11q31 0 58 -11q27 -12 48 -32q20 -20 32 -47zM336 78q0 -31 -12 -58t-32 -48q-21 -20 -48 -32t-58 -12t-58 12t-47 32
q-21 21 -32 48q-12 27 -12 58t12 58q12 26 33 46q20 20 47 32q27 11 57 11q31 0 58 -11q27 -12 48 -32q20 -20 32 -46z" />
    <glyph glyph-name="semicolon" unicode=";" horiz-adv-x="379" 
d="M342 705q0 -31 -12 -58t-32 -47q-20 -21 -47 -33q-28 -12 -58 -12q-31 0 -58 12t-47 33q-21 20 -33 47t-12 58q0 30 12 57t33 47t48 32q27 11 57 11t58 -11q27 -12 47 -32t32 -47zM342 25q0 -54 -21 -102t-56 -84q-36 -35 -83 -56q-48 -21 -102 -21v160q18 0 37 7t33 20
q-48 11 -80 49q-33 38 -33 88q0 28 12 54q11 26 30 45t45 31q25 11 54 11q42 0 73 -17q31 -18 52 -46q20 -29 30 -65z" />
    <glyph glyph-name="less" unicode="&#x3c;" horiz-adv-x="1036" 
d="M37 637v145l962 420v-172l-733 -319l733 -320v-172z" />
    <glyph glyph-name="equal" unicode="=" horiz-adv-x="1079" 
d="M37 776v160h1005v-160h-1005zM37 485v158h1005v-158h-1005z" />
    <glyph glyph-name="greater" unicode="&#x3e;" horiz-adv-x="1036" 
d="M37 219v172l733 320l-733 319v172l962 -420v-145z" />
    <glyph glyph-name="question" unicode="?" horiz-adv-x="807" 
d="M770 1157q0 -76 -27 -139q-27 -64 -68 -121q-41 -58 -88 -112q-48 -55 -89 -111q-41 -57 -68 -119q-27 -63 -27 -137q0 -17 3 -33q3 -17 6 -33l-154 -35q-12 49 -12 103q0 90 27 164t68 137q40 63 87 118q47 54 88 106q40 52 67 104q27 51 27 108q0 45 -17 85
q-17 39 -46 69q-30 29 -69 46q-40 17 -85 17q-35 0 -67 -10q-33 -11 -60 -30q-27 -20 -47 -47q-21 -27 -33 -60l-149 49q19 57 55 104q35 47 82 81q47 33 103 52t116 19q78 0 147 -29q68 -30 119 -81t81 -119zM510 80q0 -31 -11 -58q-12 -27 -31 -48q-20 -20 -47 -32
q-28 -12 -59 -12q-30 0 -57 12q-28 12 -48 32q-20 21 -32 48t-12 58t12 58q12 26 32 46t48 32q27 11 57 11q31 0 58 -11q27 -12 47 -32t32 -46z" />
    <glyph glyph-name="at" unicode="@" horiz-adv-x="1565" 
d="M1528 733q0 -51 -7 -105q-7 -55 -22 -107q-16 -52 -41 -98q-25 -47 -61 -82q-36 -36 -84 -56q-48 -21 -109 -21q-40 0 -78 12q-38 11 -71 32t-59 51q-26 29 -42 65q-55 -26 -115 -44t-122 -18q-50 0 -94 16q-45 15 -78 44q-33 28 -52 70q-20 41 -20 94q0 61 21 111
q20 49 55 87t81 66q46 27 98 45q51 18 105 27q53 8 103 8q-2 27 -9 59q-8 32 -23 61q-15 28 -39 47t-58 19q-26 0 -43 -11q-18 -11 -28 -28q-11 -17 -16 -38q-5 -22 -5 -44h-158q0 55 17 106q16 50 48 89q31 38 77 61q45 23 104 23q70 0 123 -30q53 -31 89 -80t56 -110
q19 -62 23 -124q0 -91 -7 -183q-8 -93 -8 -186q0 -26 9 -50q8 -25 24 -44q16 -20 40 -31q23 -12 52 -12q34 0 60 16q25 16 44 42q18 25 30 58q11 33 18 68q7 34 10 67q2 32 2 58q0 130 -40 246q-41 116 -117 204t-184 140q-109 51 -245 51q-130 0 -237 -54
q-108 -54 -185 -143q-78 -90 -120 -205q-43 -116 -43 -239q0 -124 43 -239q42 -116 119 -205q77 -90 185 -143q107 -54 238 -54q157 0 291 84l84 -133q-85 -54 -180 -83q-96 -28 -195 -28q-108 0 -205 30q-97 31 -180 86q-83 54 -149 129q-67 74 -114 163t-72 189t-25 204
q0 103 25 203q25 99 72 188t114 164q66 75 149 129t180 85q97 30 205 30q112 0 211 -29t182 -82t149 -126q65 -74 111 -163q45 -89 69 -190zM915 772q-40 0 -89 -10t-92 -31q-44 -22 -73 -57q-30 -35 -30 -86q0 -20 8 -33q7 -14 20 -22q12 -8 28 -11q16 -4 34 -4q25 0 52 7
q26 6 52 16t51 23q25 12 48 24q2 46 5 92q2 46 5 92h-19z" />
    <glyph glyph-name="A" unicode="A" horiz-adv-x="715" 
d="M522 -41l-143 627l-131 -11l-53 -622l-158 14l123 1469l180 28l338 -1468zM283 1001l-21 -266l80 8z" />
    <glyph glyph-name="B" unicode="B" horiz-adv-x="807" 
d="M770 494q0 -119 -40 -210q-41 -92 -111 -158t-165 -107q-95 -42 -204 -60l-213 1462q26 18 51 33q24 15 50 26t55 17q28 6 61 6q65 0 123 -25q57 -25 100 -68q42 -43 67 -101t25 -123q0 -62 -23 -120t-67 -103q65 -34 119 -84q53 -50 92 -110q38 -61 59 -131zM412 1186
q0 32 -12 61q-13 28 -34 50q-22 21 -51 34q-29 12 -61 12q-11 0 -22 -1q-12 -2 -23 -5l45 -309q32 0 61 13q29 12 51 34q21 21 34 50zM610 494q0 70 -25 134q-26 63 -70 112q-45 49 -105 81q-61 31 -131 39l104 -708q51 22 93 57q41 35 71 80q30 44 47 97z" />
    <glyph glyph-name="C" unicode="C" horiz-adv-x="633" 
d="M596 141q-16 -47 -37 -88t-50 -72q-30 -30 -70 -48q-41 -17 -95 -17q-72 0 -123 44q-51 45 -85 116t-54 160q-20 88 -30 176t-12 166q-3 78 -3 129q0 45 3 121q3 75 14 162q10 87 30 176q20 88 54 160t84 118q50 45 120 45q57 0 95 -22q37 -22 60 -58q22 -36 31 -82
t9 -94q0 -32 -2 -64t-7 -63l-155 20l6 62q2 30 2 61q0 9 -1 23t-4 27q-4 13 -12 23q-8 9 -22 9q-34 0 -58 -39t-40 -99q-16 -61 -26 -135t-15 -143t-6 -125q-2 -57 -2 -83q0 -25 3 -81q2 -57 8 -127q6 -71 17 -145q10 -75 27 -137q16 -62 40 -101q23 -40 54 -40q25 0 42 11
q17 10 28 27q11 16 18 36t12 40z" />
    <glyph glyph-name="D" unicode="D" horiz-adv-x="561" 
d="M37 1481l46 -6q23 -3 46 -7q77 -12 137 -54q59 -43 103 -105q44 -63 74 -139q29 -77 47 -157t26 -158t8 -142q0 -61 -9 -136t-29 -151q-20 -77 -51 -150q-32 -73 -76 -131q-45 -59 -104 -97q-59 -39 -134 -46q-22 -2 -42 -3t-42 -3v1485zM367 725q0 65 -8 140
q-8 74 -27 147q-20 72 -53 137t-82 113l-2 -1063q49 43 82 107t53 136t29 146z" />
    <glyph glyph-name="E" unicode="E" horiz-adv-x="618" 
d="M211 -55l-174 1497l350 47l21 -156l-195 -26l18 -164l275 53l29 -158l-285 -53l98 -854l207 39l27 -158z" />
    <glyph glyph-name="F" unicode="F" horiz-adv-x="545" 
d="M500 961l-267 16l-36 -1006l-160 6l57 1508l352 -8l-2 -160l-196 6l-8 -186l268 -17z" />
    <glyph glyph-name="G" unicode="G" horiz-adv-x="662" 
d="M537 -133l-160 12l6 68l-34 -6q-17 -2 -34 -2q-62 0 -107 36t-76 94t-49 131q-19 72 -29 145t-13 139q-4 65 -4 110q0 41 2 102q1 61 7 134q6 72 16 151q10 78 28 154q17 75 43 144q25 68 60 120q35 51 82 82q46 30 106 30q54 0 90 -20q35 -21 56 -55t30 -78q8 -44 8 -90
q0 -35 -4 -70l-10 -72l-158 29q6 34 11 68q4 33 4 67v18q-1 10 -3 20q-3 10 -8 17q-6 7 -16 7q-19 0 -36 -16q-17 -17 -30 -39q-14 -23 -23 -46q-10 -23 -16 -37q-27 -74 -43 -156q-17 -82 -25 -166q-8 -85 -10 -170q-3 -85 -3 -163q0 -21 1 -64t5 -94q3 -51 11 -105t22 -98
q13 -44 34 -72t51 -28q32 0 51 19t31 45l52 622l-197 21l16 158l353 -37z" />
    <glyph glyph-name="H" unicode="H" horiz-adv-x="627" 
d="M432 -47l-76 1061l-131 -8l74 -1063l-158 -11l-104 1500l158 10l20 -279l131 11l-20 278l159 10l105 -1499z" />
    <glyph glyph-name="I" unicode="I" horiz-adv-x="281" 
d="M86 -35l-49 1503l160 5l47 -1502z" />
    <glyph glyph-name="J" unicode="J" horiz-adv-x="627" 
d="M526 455q-3 -43 -10 -97q-7 -55 -21 -112q-14 -58 -35 -113q-22 -56 -53 -99q-32 -44 -75 -71q-43 -26 -99 -26q-60 0 -98 24t-59 63q-22 39 -30 88q-9 48 -9 97q0 29 2 57q1 28 6 56l158 -21q-3 -28 -6 -55q-4 -28 -4 -56q0 -9 1 -25t5 -31q3 -15 11 -26q7 -12 21 -12
q24 0 43 22t34 57q14 35 25 78q11 42 19 83q7 41 11 76q4 34 6 53l63 971l158 -11z" />
    <glyph glyph-name="K" unicode="K" horiz-adv-x="705" 
d="M514 -125l-268 1018l-49 -94v-817h-160v1501h160v-346l200 376l140 -73l-181 -340l312 -1184z" />
    <glyph glyph-name="L" unicode="L" horiz-adv-x="436" 
d="M389 -25l-352 27l82 1505l160 -8l-74 -1349l194 -15z" />
    <glyph glyph-name="M" unicode="M" horiz-adv-x="713" 
d="M518 4v1018l-92 -242h-141l-90 242v-1018h-158v1487h153l166 -447l166 447h154v-1487h-158z" />
    <glyph glyph-name="N" unicode="N" horiz-adv-x="731" 
d="M524 8l-327 1020v-1024h-160v1487h176l324 -1002v1012h157v-1493h-170z" />
    <glyph glyph-name="O" unicode="O" 
d="M1212 715q0 -84 -16 -174q-17 -91 -49 -178q-33 -87 -82 -165q-49 -79 -114 -138t-146 -94q-82 -34 -180 -34t-179 34q-82 35 -147 94q-66 59 -115 137t-81 165q-33 87 -49 178q-17 90 -17 175q0 83 17 173t51 177q33 86 83 165q49 78 115 137q65 59 146 94q80 34 176 34
t177 -34q80 -35 146 -94q65 -59 115 -137q49 -79 82 -165q33 -87 50 -177zM1053 715q0 61 -11 131q-11 69 -34 138t-58 133t-82 113q-48 49 -108 78q-61 29 -135 29t-134 -29q-61 -29 -108 -77q-48 -49 -83 -112q-36 -64 -59 -133q-23 -70 -34 -140q-12 -70 -12 -131
t12 -131q11 -71 34 -140q23 -70 59 -134q35 -64 83 -113q47 -49 108 -78q60 -29 134 -29t135 30q60 29 108 78q47 49 82 113t58 134q23 69 34 139z" />
    <glyph glyph-name="P" unicode="P" horiz-adv-x="543" 
d="M197 -35l-160 4l37 1512q38 15 77 29q38 14 80 14q57 0 107 -22t88 -60q37 -39 59 -89q21 -51 21 -108q0 -58 -21 -108q-21 -51 -59 -88t-90 -58q-53 -22 -115 -22zM348 1243q0 25 -8 47q-9 22 -25 39q-16 16 -37 26q-22 9 -47 9l-6 -236q25 0 47 9q22 8 39 24
q17 15 27 36z" />
    <glyph glyph-name="Q" unicode="Q" 
d="M1212 729q0 -87 -15 -175q-15 -89 -46 -172q-31 -84 -78 -159q-48 -76 -112 -137q12 -51 20 -104q8 -52 6 -105v-20h-160v22q0 5 -1 23q-2 18 -4 38q-3 23 -5 50q-45 -20 -94 -32q-49 -11 -98 -11q-98 0 -179 34q-82 35 -147 94q-66 58 -115 136t-81 165q-33 87 -49 178
q-17 90 -17 175q0 83 17 173t51 177q33 87 83 166q49 78 115 137q65 59 146 94q80 35 176 35t177 -35q80 -35 146 -94q65 -59 115 -137q49 -79 82 -166t50 -177zM1053 729q0 61 -11 132q-11 70 -34 140q-23 69 -58 133t-82 113q-48 49 -108 78q-61 29 -135 29
q-73 0 -133 -29q-61 -30 -108 -79q-48 -49 -83 -113q-36 -64 -59 -133q-24 -70 -35 -140q-12 -70 -12 -131t12 -131q11 -70 35 -139q23 -70 59 -134q35 -64 83 -113q47 -49 108 -78q60 -30 133 -30q38 0 77 12q38 11 72 29q-18 42 -42 81q-25 39 -56 71l110 111
q36 -35 63 -74q26 -39 48 -82q41 49 71 106q29 57 48 119q19 61 28 125z" />
    <glyph glyph-name="R" unicode="R" horiz-adv-x="803" 
d="M606 -23q0 132 -17 266q-18 134 -56 262q-39 128 -101 246t-151 220l-48 -8l76 -1000l-159 -12l-113 1507q44 23 85 41q40 17 91 17q57 0 107 -21q50 -22 88 -59q37 -38 59 -88t22 -107q0 -53 -18 -100q-18 -48 -53 -86q94 -113 160 -241q66 -129 108 -266
q42 -138 61 -282q19 -145 19 -289h-160zM203 1356l18 -236q47 5 79 38t32 81q0 50 -31 84q-32 33 -86 33h-12z" />
    <glyph glyph-name="S" unicode="S" horiz-adv-x="514" 
d="M473 1296q-35 0 -62 -7q-28 -7 -48 -22q-20 -16 -30 -42q-11 -26 -11 -64v-17q0 -8 2 -16l88 -624q6 -44 6 -86q0 -72 -23 -135t-65 -110q-43 -47 -103 -74t-135 -27q-14 0 -27 1q-14 1 -28 3l26 155q8 0 15 -1q6 -1 14 -1q42 0 74 15q31 15 52 41t32 61q10 35 10 74
q0 15 -1 32q-1 16 -3 31l-88 623q-2 15 -3 30q-1 14 -1 29q0 73 23 128q23 54 65 91q41 36 99 54q57 18 126 18z" />
    <glyph glyph-name="T" unicode="T" horiz-adv-x="485" 
d="M438 1278l-121 8l-81 -1298l-160 10l82 1298l-121 9l10 157l402 -26z" />
    <glyph glyph-name="U" unicode="U" horiz-adv-x="553" 
d="M516 258q0 -49 -19 -92q-19 -44 -51 -77q-33 -33 -77 -52t-93 -19q-50 0 -93 19q-44 19 -76 52q-33 32 -51 76q-19 43 -19 93v1225h158v-1225q0 -34 24 -57q23 -23 57 -23q16 0 31 7q14 6 25 17t18 26q6 14 6 30v1225h160v-1225z" />
    <glyph glyph-name="V" unicode="V" horiz-adv-x="600" 
d="M367 2l-154 21l-176 1454l158 18l104 -870l107 870l157 2z" />
    <glyph glyph-name="W" unicode="W" horiz-adv-x="895" 
d="M682 4l-174 21l-62 501l-59 -501l-174 -21l-176 1475l158 20l104 -870l76 606h147l72 -606l106 870l158 -20z" />
    <glyph glyph-name="X" unicode="X" horiz-adv-x="735" 
d="M549 27l-207 575l-119 -600l-155 31l168 858l-199 551l149 53l109 -301l61 315l156 -30l-113 -576l299 -821z" />
    <glyph glyph-name="Y" unicode="Y" horiz-adv-x="612" 
d="M575 1427q-17 -66 -29 -110t-20 -77q-9 -34 -16 -62q-8 -28 -17 -61q-9 -34 -20 -79q-12 -45 -29 -111t-41 -159q-25 -94 -59 -225q-5 -98 -7 -159q-3 -61 -5 -99q-2 -39 -3 -62q-1 -24 -2 -46t-2 -50q-1 -29 -3 -78l-160 6q6 116 12 242t14 250q-31 227 -72 459
q-42 231 -79 454l158 25l88 -549l139 532z" />
    <glyph glyph-name="Z" unicode="Z" horiz-adv-x="496" 
d="M74 -70l159 1366l-196 29l20 156l351 -47l-152 -1307l172 33l31 -156z" />
    <glyph glyph-name="bracketleft" unicode="[" horiz-adv-x="406" 
d="M78 -381l-41 1833l289 6l6 -160l-133 -2l34 -1515l132 4l4 -160z" />
    <glyph glyph-name="backslash" unicode="\" horiz-adv-x="596" 
d="M397 -315l-360 1749h160l362 -1749h-162z" />
    <glyph glyph-name="bracketright" unicode="]" horiz-adv-x="406" 
d="M328 -381l-291 6l4 160l131 -4l35 1515l-133 2l6 160l289 -6z" />
    <glyph glyph-name="asciicircum" unicode="^" horiz-adv-x="1006" 
d="M795 670l-293 667l-293 -667h-172l377 860h176l379 -860h-174z" />
    <glyph glyph-name="underscore" unicode="_" horiz-adv-x="678" 
d="M0 -160v160h678v-160h-678z" />
    <glyph glyph-name="grave" unicode="`" horiz-adv-x="479" 
d="M377 1628l-84 42q-41 20 -81 40t-80 41q-40 20 -83 41l55 109l84 -42l80 -40q39 -20 79 -40q40 -21 83 -42z" />
    <glyph glyph-name="a" unicode="a" horiz-adv-x="713" 
d="M518 -37l-53 639l-131 8l-144 -606l-153 37l336 1436l180 2l123 -1504zM430 1028l-59 -260l82 -4z" />
    <glyph glyph-name="b" unicode="b" horiz-adv-x="674" 
d="M637 535q0 -134 -47 -233q-47 -100 -128 -166q-82 -66 -191 -99q-110 -33 -234 -33v1479q43 21 87 37t93 16q65 0 124 -25q58 -25 102 -67q43 -43 69 -101q25 -58 25 -124q0 -75 -34 -141q-35 -66 -93 -111q52 -37 94 -85t72 -103q29 -56 45 -118zM477 535q0 64 -21 122
t-58 106q-37 47 -88 81q-52 34 -113 49l2 -715q60 15 111 50q51 34 88 81t58 105zM377 1221q0 33 -12 62q-13 28 -34 49q-22 20 -51 32t-61 12h-24l2 -313q5 -2 10 -2h10q33 0 62 13q29 12 51 34t35 51z" />
    <glyph glyph-name="c" unicode="c" horiz-adv-x="680" 
d="M643 184q-12 -49 -31 -93q-20 -44 -49 -77t-70 -52q-42 -19 -98 -19q-60 0 -107 31t-83 84q-37 53 -63 123q-27 70 -45 148q-19 77 -30 158q-12 80 -18 154q-7 74 -9 137q-3 63 -3 105q0 45 2 109t11 134t27 139q17 68 47 123t75 89t110 34q62 0 101 -29t61 -74
q21 -45 29 -99t8 -103q0 -17 -1 -32q-1 -16 -1 -33l-156 10v28q0 19 -1 42q-2 22 -4 46q-3 23 -8 43q-5 19 -13 32q-8 12 -19 12q-28 0 -47 -27t-31 -68q-13 -42 -20 -93t-10 -99t-3 -87q-1 -39 -1 -58q0 -23 2 -71t7 -110q4 -62 12 -133q8 -72 20 -143q11 -71 26 -136
q15 -66 35 -116q20 -51 45 -81t55 -30q24 0 40 12q16 11 27 29q10 17 16 38q5 21 9 40z" />
    <glyph glyph-name="d" unicode="d" horiz-adv-x="627" 
d="M590 819q0 -68 -10 -153q-11 -85 -34 -172q-23 -88 -59 -172t-88 -149t-120 -104q-69 -40 -156 -40h-86l123 1480q86 -15 152 -50q65 -36 113 -87q47 -52 79 -116q32 -65 51 -136q19 -72 27 -148zM430 825q0 55 -6 117q-7 61 -22 121t-40 116q-26 55 -63 97l-86 -1059
q62 48 104 121t67 157t36 170z" />
    <glyph glyph-name="e" unicode="e" horiz-adv-x="569" 
d="M242 1004l-39 -861l209 7l4 -158l-379 -10l67 1507l355 -10l-6 -158l-197 4l-8 -164l280 8l4 -157z" />
    <glyph glyph-name="f" unicode="f" horiz-adv-x="512" 
d="M207 975l29 -1006l-160 -4l-39 1508l352 16l8 -160l-198 -10l6 -186l268 4l2 -162h-268z" />
    <glyph glyph-name="g" unicode="g" horiz-adv-x="643" 
d="M446 -111v68q-20 -8 -40 -12t-41 -4q-56 0 -99 29q-44 30 -77 80q-34 50 -58 116q-25 66 -41 140q-17 73 -27 149q-11 76 -16 146q-6 69 -8 128t-2 98q0 49 3 119q2 70 12 147q9 76 28 151t52 135t83 97q49 37 119 37q57 0 93 -26t57 -66q20 -40 27 -89t7 -95
q0 -23 -1 -45t-3 -45l-158 10q2 22 3 42t1 42v28q-1 18 -4 37t-10 34q-7 14 -20 14q-28 0 -48 -33t-34 -85q-15 -52 -24 -114q-9 -63 -14 -121q-5 -59 -7 -107t-2 -69t1 -63q1 -43 4 -98t8 -118q5 -64 14 -126q9 -63 21 -120q12 -58 30 -102q17 -45 39 -71q22 -27 51 -27
q24 0 40 11t27 32q5 8 9 13q3 5 3 14v625l-196 2l4 159l354 -4v-1061z" />
    <glyph glyph-name="h" unicode="h" horiz-adv-x="592" 
d="M485 -51l-159 8l49 1061l-131 6l-49 -1063l-158 8l67 1501l158 -8l-12 -278l133 -6l12 280l160 -8z" />
    <glyph glyph-name="i" unicode="i" horiz-adv-x="274" 
d="M78 -23l-41 1502l160 4l41 -1501z" />
    <glyph glyph-name="j" unicode="j" horiz-adv-x="532" 
d="M496 369q0 -39 -4 -83q-4 -45 -13 -89q-10 -45 -27 -85q-18 -41 -44 -72q-27 -32 -64 -51q-38 -18 -88 -18q-65 0 -106 35q-41 34 -65 86q-24 51 -34 111q-10 59 -14 110l158 13q1 -13 4 -45t10 -65q6 -34 17 -59q11 -26 28 -26q19 0 33 15q13 14 22 37t15 51q5 28 8 56
q2 27 3 51q1 23 1 36q0 139 -15 278q-15 138 -36 276q-22 138 -46 276t-42 276l157 22q18 -142 43 -284q24 -142 46 -283q22 -142 38 -284z" />
    <glyph glyph-name="k" unicode="k" horiz-adv-x="698" 
d="M508 -115l-209 1030l-55 -90l-47 -817l-160 8l86 1502l160 -9l-21 -348l223 367l133 -82l-198 -330l242 -1200z" />
    <glyph glyph-name="l" unicode="l" horiz-adv-x="512" 
d="M121 2l-84 1503l158 11l77 -1348l197 6l6 -160z" />
    <glyph glyph-name="m" unicode="m" horiz-adv-x="778" 
d="M582 31l-43 1018l-80 -248l-142 -6l-100 239l43 -1018l-160 -6l-63 1485l156 6l184 -438l145 453l156 6l63 -1483z" />
    <glyph glyph-name="n" unicode="n" horiz-adv-x="811" 
d="M694 12l-170 8l-274 1035l-53 -1022l-160 10l80 1483l174 -10l270 -1016l53 1011l160 -10z" />
    <glyph glyph-name="o" unicode="o" horiz-adv-x="1030" 
d="M993 729q0 -70 -12 -144q-13 -74 -39 -143q-26 -70 -65 -132q-39 -63 -92 -109q-53 -47 -120 -74q-68 -27 -149 -27q-82 0 -149 27q-68 27 -121 73t-92 108q-40 62 -66 132t-38 144q-13 74 -13 145q0 70 13 144t40 144q26 70 66 132q39 62 92 109q53 46 120 73t148 27
q79 0 146 -27q66 -28 119 -75t93 -109q40 -63 67 -133q26 -70 39 -143zM834 729q0 47 -7 100q-8 53 -24 106q-17 52 -42 100q-25 47 -60 84q-36 36 -82 58q-46 21 -103 21q-58 0 -104 -21q-46 -22 -81 -58q-36 -36 -61 -83q-25 -48 -41 -100q-17 -53 -24 -106
q-8 -53 -8 -101q0 -47 8 -100q7 -54 24 -106q16 -53 41 -101t61 -84q35 -37 81 -58q46 -22 104 -22q57 0 103 22t82 59q35 36 60 84t42 101q16 52 24 105z" />
    <glyph glyph-name="p" unicode="p" horiz-adv-x="526" 
d="M489 1264q0 -55 -20 -104t-55 -86q-35 -38 -82 -61q-48 -23 -103 -26l68 -1001l-158 -11l-102 1508q43 25 86 42t94 17q56 0 106 -23q49 -23 86 -61t59 -88zM332 1266q0 27 -10 49q-11 21 -29 36t-41 23q-24 8 -49 8l16 -235q24 1 45 11q20 9 36 25q15 16 24 38z" />
    <glyph glyph-name="q" unicode="q" 
d="M1212 774q0 -87 -15 -176t-46 -172q-32 -84 -79 -159q-48 -75 -114 -136q13 -51 21 -103q8 -53 6 -106v-20h-158q0 68 -12 133q-45 -22 -94 -32q-49 -11 -98 -11q-98 0 -179 35q-82 34 -147 93t-114 137t-81 165q-33 87 -49 178q-16 90 -16 174q0 83 17 173q16 90 49 177
t83 166q49 78 114 137t146 94t177 35q97 0 179 -34q81 -35 147 -94q65 -59 115 -137q49 -78 82 -165t50 -177zM1053 774q0 61 -11 132q-12 70 -35 139t-58 133q-36 63 -83 112q-48 49 -108 78q-61 29 -135 29q-73 0 -133 -29q-61 -29 -108 -78q-48 -49 -83 -113t-58 -133
t-34 -139q-12 -70 -12 -131t12 -131q11 -70 34 -139t58 -132q35 -64 83 -113q47 -49 108 -78q60 -29 133 -29q38 0 77 10q38 10 72 28q-18 42 -42 80t-56 70l110 113q34 -34 62 -74q28 -41 51 -84q41 49 71 107q29 57 48 119q19 61 28 126z" />
    <glyph glyph-name="r" unicode="r" horiz-adv-x="707" 
d="M670 219q0 -68 -4 -135q-5 -67 -15 -135l-157 22q18 129 18 262q0 99 -12 200q-12 100 -37 199q-25 98 -64 191q-39 92 -94 174h-49l-59 -1001l-160 10l92 1510q34 14 69 25t72 11q57 0 108 -21t90 -58q38 -37 61 -87q22 -50 22 -108q0 -62 -25 -118q-25 -57 -73 -97
q57 -93 99 -196q41 -103 67 -211t39 -218zM393 1280q0 22 -9 42t-24 36q-16 15 -36 25q-21 9 -43 10l-15 -236q56 0 92 33z" />
    <glyph glyph-name="s" unicode="s" horiz-adv-x="434" 
d="M397 395q0 -73 -25 -134q-26 -61 -71 -105t-106 -68q-62 -25 -134 -25l5 158q40 0 72 13t55 36q22 23 35 56q12 32 12 71q0 25 -5 50q-6 24 -12 49l-170 606q-8 26 -12 54q-4 27 -4 54q0 61 22 111q21 49 59 86q37 36 88 58q51 21 109 26l15 -158q-28 -2 -52 -10
q-25 -8 -43 -23q-19 -15 -29 -37q-11 -22 -11 -53q0 -17 3 -33q2 -17 7 -32l172 -606q9 -35 15 -71z" />
    <glyph glyph-name="t" unicode="t" horiz-adv-x="485" 
d="M328 1307l82 -1297l-160 -10l-82 1298l-121 -8l-10 160l401 25l11 -160z" />
    <glyph glyph-name="u" unicode="u" horiz-adv-x="616" 
d="M518 266q-2 -48 -21 -89q-20 -42 -52 -72q-33 -31 -75 -48q-43 -18 -91 -18t-91 19q-44 18 -77 50t-52 75q-20 43 -20 93v13l63 1224l158 -8l-61 -1224q2 -39 25 -60q23 -22 57 -22q32 0 55 21q22 20 24 54l62 1223l158 -8z" />
    <glyph glyph-name="v" unicode="v" horiz-adv-x="598" 
d="M494 47l-172 -12l-285 1438l156 28l169 -860l39 877l160 -7z" />
    <glyph glyph-name="w" unicode="w" horiz-adv-x="891" 
d="M545 20l-172 17l-15 504l-106 -494l-172 16l-43 1465l160 4l24 -877l129 600l146 -14l18 -612l184 856l156 -33z" />
    <glyph glyph-name="x" unicode="x" horiz-adv-x="735" 
d="M500 911l168 -858l-156 -30l-117 598l-209 -574l-149 53l299 824l-113 573l156 31l61 -316l109 304l149 -56z" />
    <glyph glyph-name="y" unicode="y" horiz-adv-x="612" 
d="M575 1501q-18 -109 -37 -224q-20 -116 -40 -233t-39 -232q-20 -116 -37 -226q3 -124 14 -247q10 -123 15 -241l-160 -8q-2 49 -3 78q-1 28 -2 50t-2 46q-1 23 -3 62q-2 38 -5 99t-8 159q-34 132 -58 226q-25 93 -42 160q-17 66 -28 111q-12 44 -21 78t-16 62
q-8 28 -17 62q-9 33 -20 77q-12 44 -29 110l153 39l138 -532l90 549z" />
    <glyph glyph-name="z" unicode="z" horiz-adv-x="496" 
d="M438 -49l-350 49l152 1305l-172 -33l-31 155l385 74l-160 -1366l197 -26z" />
    <glyph glyph-name="braceleft" unicode="{" horiz-adv-x="403" 
d="M379 -299q-13 -2 -26 -3t-25 -1q-53 0 -94 19q-42 19 -70 52q-29 33 -44 77q-16 44 -16 94q0 115 7 231q6 116 6 231q0 23 -4 47q-4 23 -14 42q-11 18 -29 31q-18 12 -45 14v157q27 1 45 13t29 31q10 19 14 43q4 23 4 46q0 116 -6 232q-7 116 -7 231q0 51 16 96
q15 44 44 77q29 32 72 51q42 18 96 18h23q11 -1 24 -4l-27 -156q-5 2 -9 2h-9q-40 0 -56 -22q-16 -23 -16 -60q0 -117 7 -233t7 -232q0 -57 -15 -112q-16 -55 -56 -99q38 -43 55 -98q16 -56 16 -113q0 -117 -7 -233t-7 -233q0 -26 6 -42q5 -16 16 -25q11 -8 28 -11
q17 -2 40 -2z" />
    <glyph glyph-name="bar" unicode="|" horiz-adv-x="207" 
d="M25 -414v2048h157v-2048h-157z" />
    <glyph glyph-name="braceright" unicode="}" horiz-adv-x="403" 
d="M379 535q-28 -2 -45 -14q-18 -13 -28 -31q-11 -19 -15 -42q-4 -24 -4 -47q0 -115 6 -231t6 -231q0 -50 -15 -94q-16 -44 -44 -77q-29 -33 -70 -52q-42 -19 -94 -19q-13 0 -26 1t-25 3l26 156q23 0 40 2q17 3 28 11q11 9 17 25q5 16 5 42q0 117 -7 233t-7 233q0 57 17 113
q16 55 55 98q-41 44 -56 99q-16 55 -16 112q0 116 7 232t7 233q0 37 -15 60q-16 22 -56 22h-10q-4 0 -9 -2l-26 156q12 3 24 4h23q54 0 96 -18q42 -19 71 -51q29 -33 45 -77q15 -45 15 -96q0 -115 -6 -231t-6 -232q0 -23 4 -46q4 -24 15 -43q10 -19 28 -31q17 -12 45 -13
v-157z" />
    <glyph glyph-name="asciitilde" unicode="~" horiz-adv-x="1063" 
d="M1038 776q-6 -54 -30 -100q-25 -46 -62 -79q-38 -34 -87 -53q-49 -20 -103 -20q-42 0 -82 12t-74 35l-223 146q-30 20 -70 20q-51 0 -80 -28q-30 -28 -43 -74h-159q8 56 32 104q23 48 59 83t85 55q48 20 106 20q42 0 82 -12t74 -35l223 -145q16 -11 34 -16q17 -5 36 -5
q21 0 41 7q19 6 36 18q16 12 28 29t18 38h159z" />
    <glyph glyph-name="exclamdown" unicode="&#xa1;" horiz-adv-x="510" 
d="M485 1133q0 -31 -12 -58t-32 -47t-47 -31q-27 -12 -58 -12t-58 12q-27 11 -47 31t-31 47q-12 27 -12 58q0 30 12 58q11 27 31 47q19 20 46 32t59 12q31 0 58 -12t47 -32t32 -47zM180 -317l-155 26l196 1206l158 -24z" />
    <glyph glyph-name="cent" unicode="&#xa2;" horiz-adv-x="590" 
d="M418 1090q-14 32 -29 50q-15 17 -53 17q-15 0 -27 -7t-22 -18q-11 -11 -19 -23q-8 -13 -14 -24q-21 -36 -34 -84q-14 -49 -22 -100q-9 -52 -12 -102q-4 -50 -4 -90q0 -15 2 -42q1 -27 5 -59q4 -33 11 -66q6 -33 18 -60q11 -28 27 -45t38 -17q12 0 23 4q10 4 18 16
l137 -78q-25 -46 -70 -72t-96 -28l-29 -262l-157 18l34 301q-37 33 -60 81t-36 102q-13 53 -17 108q-5 55 -5 101q0 45 4 100q3 55 12 114q9 58 25 116q16 57 42 108q25 50 61 89q35 39 83 60l18 164l158 -18l-16 -139q58 -17 94 -59q36 -43 59 -99z" />
    <glyph glyph-name="sterling" unicode="&#xa3;" horiz-adv-x="993" 
d="M969 289q-5 -53 -18 -110q-14 -58 -41 -105q-27 -48 -70 -79q-44 -30 -109 -30q-38 0 -73 10t-67 27q-32 16 -62 38q-31 21 -60 44q-34 -63 -94 -96t-131 -33q-40 0 -79 13q-40 14 -71 40q-31 25 -50 60t-19 79q0 45 16 83t45 66q28 28 67 44q38 16 83 16q29 0 57 -4
q27 -4 55 -10q-11 68 -20 134q-10 66 -21 134h-96v158h74q-14 72 -23 146q-10 73 -10 147q0 85 17 170q17 84 58 151q40 67 107 109q67 41 168 41q59 0 105 -20q46 -21 78 -57q31 -36 47 -85t16 -106h-160q0 21 -5 41q-5 19 -15 35q-11 15 -27 25q-17 9 -41 9q-60 0 -97 -31
t-58 -77q-21 -47 -28 -101t-7 -100q0 -75 11 -149t23 -148h279v-158h-256q7 -38 16 -84q8 -47 16 -95q7 -49 12 -95q5 -47 5 -84q16 -16 43 -38t57 -41q30 -20 60 -34t53 -14q25 0 40 21q15 20 24 49q9 28 12 57t4 47zM340 178q-25 9 -51 15q-27 6 -53 6q-23 0 -38 -13
q-16 -13 -16 -36q0 -9 7 -15q7 -7 17 -12t21 -7q10 -3 17 -3q34 0 58 17z" />
    <glyph glyph-name="currency" unicode="&#xa4;" horiz-adv-x="942" 
d="M870 1225q-18 27 -41 54q-23 26 -50 47t-58 35q-32 13 -68 13q-48 0 -89 -22q-41 -23 -75 -60q-35 -37 -62 -84q-27 -48 -47 -98q-21 -50 -34 -98q-14 -49 -20 -88h473l-39 -158h-451v-66h434l-38 -157h-379q6 -39 20 -87q13 -49 34 -99q20 -50 48 -98q27 -48 61 -85
t75 -59q41 -23 89 -23q43 0 79 17q36 16 65 43q29 26 53 60q24 33 43 67h18v-236q-30 -26 -59 -47q-29 -20 -60 -34t-65 -22t-74 -8q-74 0 -136 28q-63 28 -114 76q-51 47 -91 109q-40 61 -69 129q-30 68 -49 138q-19 69 -28 131h-141l38 157h89v66h-127l38 158h103
q9 62 28 132q19 69 48 137q29 67 69 129q40 61 91 108t114 75q62 27 137 27q78 0 145 -32q66 -32 120 -85z" />
    <glyph glyph-name="yen" unicode="&#xa5;" horiz-adv-x="807" 
d="M506 555q-2 -9 -3 -19q-1 -11 -1 -20l22 -493l-159 -9l-23 494q0 1 -1 6q-2 4 -3 10q-2 5 -3 10t-1 7l-277 -23l-14 160l250 18l-17 66l-237 -19l-14 158l211 17l-125 475l153 41l139 -533l89 549l157 -25l-80 -481l183 14l14 -157l-223 -19l-11 -65l238 18l12 -157z" />
    <glyph glyph-name="brokenbar" unicode="&#xa6;" horiz-adv-x="207" 
d="M25 676v958h157v-958h-157zM25 -414v961h157v-961h-157z" />
    <glyph glyph-name="section" unicode="&#xa7;" horiz-adv-x="561" 
d="M537 438q0 -49 -11 -94q-12 -46 -35 -85q-24 -39 -58 -70q-35 -31 -81 -52q13 -46 23 -92t10 -94q0 -74 -25 -135t-70 -105t-106 -68q-62 -24 -135 -24l6 158q81 0 127 48q45 49 45 128q0 25 -4 49t-10 49l-172 606q-8 26 -12 54q-4 27 -4 55q0 97 55 166q54 69 145 98
q-7 27 -15 55q-8 27 -15 55t-12 57q-5 28 -5 56q0 61 22 111q21 49 59 85t89 57q50 21 109 26l14 -158q-27 -2 -51 -10q-25 -8 -43 -22q-19 -14 -30 -36t-11 -53q0 -17 3 -33q2 -17 7 -34l170 -606q9 -34 15 -70zM379 440q0 25 -4 50q-4 24 -10 47l-97 342q-40 -14 -62 -42
t-22 -71q0 -33 11 -66l114 -407q37 25 54 65z" />
    <glyph glyph-name="dieresis" unicode="&#xa8;" horiz-adv-x="481" 
d="M457 1702q0 -40 -28 -68t-69 -28q-20 0 -37 8q-18 7 -31 20q-14 13 -22 31q-8 17 -8 37t8 38q8 17 22 30q13 13 31 21q17 7 37 7q41 0 69 -28zM219 1702q0 -21 -8 -38q-8 -18 -21 -30q-14 -13 -31 -20q-18 -8 -38 -8q-40 0 -68 28t-28 68t28 68t68 28q20 0 38 -7
q17 -8 31 -21q13 -13 21 -30z" />
    <glyph glyph-name="copyright" unicode="&#xa9;" horiz-adv-x="1651" 
d="M1626 803q0 -111 -28 -213q-29 -103 -81 -192t-125 -162q-73 -74 -162 -126q-89 -53 -191 -81q-103 -29 -214 -29q-110 0 -212 29q-103 29 -192 82q-89 52 -162 126q-73 73 -125 162t-80 192q-29 102 -29 212t29 212q28 102 81 191q52 89 125 163q73 73 162 125t191 81
t212 29t213 -29q102 -29 191 -81t162 -125q73 -74 126 -163q52 -89 81 -191zM1468 803q0 88 -23 170t-65 154q-42 71 -101 130q-59 58 -130 100q-72 41 -154 64t-170 23q-132 0 -248 -50q-117 -51 -204 -138q-88 -88 -138 -204q-51 -117 -51 -249t51 -249q50 -117 137 -204
q87 -88 204 -139q116 -51 249 -51q89 0 171 23t154 65q71 42 130 101q58 59 100 130t65 153zM1174 381q-30 -38 -68 -66t-80 -46q-43 -19 -89 -28q-47 -10 -95 -10q-122 0 -216 49q-95 48 -160 129q-66 80 -100 185t-34 219q0 111 36 212q35 100 101 177t160 123
q94 45 211 45q54 0 108 -16q53 -17 95 -48q42 -32 68 -78q26 -47 26 -106q0 -43 -13 -82l-151 47q2 8 3 16q1 7 1 15q0 25 -13 43q-14 18 -34 29q-21 10 -45 15t-45 5q-83 0 -148 -33t-109 -87q-45 -55 -68 -126q-23 -72 -23 -149q0 -81 22 -157q21 -76 65 -135
q43 -60 110 -96q66 -36 155 -36q59 0 114 21q54 21 93 67z" />
    <glyph glyph-name="ordfeminine" unicode="&#xaa;" horiz-adv-x="500" 
d="M322 799l-15 63l-117 -10l-8 -55l-157 22l116 764l160 19l174 -768zM238 1161l-23 -147l57 4z" />
    <glyph glyph-name="guillemotleft" unicode="&#xab;" horiz-adv-x="684" 
d="M541 440l-250 293l250 291l118 -102l-159 -189l159 -188zM274 440l-249 293l249 291l119 -102l-160 -189l160 -188z" />
    <glyph glyph-name="logicalnot" unicode="&#xac;" horiz-adv-x="1063" 
d="M881 559v217h-856v160h1013v-377h-157z" />
    <glyph glyph-name="registered" unicode="&#xae;" horiz-adv-x="897" 
d="M872 1116q0 -87 -33 -164q-34 -78 -91 -135q-58 -58 -135 -91q-77 -34 -164 -34q-88 0 -165 34q-77 33 -134 91q-58 57 -91 135q-34 77 -34 164q0 88 34 165q33 77 91 135q57 57 134 91q77 33 165 33q87 0 164 -33q77 -34 135 -91q57 -58 91 -135zM795 1116q0 72 -27 135
q-28 63 -75 110t-110 74t-134 27q-72 0 -135 -27t-110 -74t-74 -110q-28 -63 -28 -135q0 -71 28 -133q27 -63 75 -110q47 -48 110 -75q63 -28 134 -28q70 0 133 28q63 27 111 75q47 47 75 110zM659 895q-18 -6 -36 -13q-19 -7 -37 -14q-10 36 -24 74q-14 37 -31 73
q-18 36 -40 70q-22 33 -47 60q-8 -2 -14 -3t-14 -1l20 -281l-78 -6l-41 543q22 14 44 22t47 8q30 0 56 -11q26 -12 46 -31q19 -20 30 -46q11 -27 11 -57q0 -26 -10 -51t-27 -45q24 -29 46 -64q22 -36 41 -74q18 -38 33 -77zM399 1348l11 -127q24 2 43 19q18 17 18 42
q0 28 -18 48q-19 20 -45 18h-9z" />
    <glyph glyph-name="macron" unicode="&#xaf;" horiz-adv-x="377" 
d="M25 1620v158h327v-158h-327z" />
    <glyph glyph-name="degree" unicode="&#xb0;" horiz-adv-x="561" 
d="M537 1323q0 -53 -20 -99q-20 -47 -55 -82t-81 -55q-47 -20 -100 -20t-100 20t-81 55q-35 35 -55 82q-20 46 -20 99t21 99q20 46 55 81q34 34 81 54q46 20 99 20q52 0 99 -20q46 -20 81 -54q35 -35 56 -81zM377 1323q0 19 -8 37q-8 17 -21 30t-30 21q-18 8 -37 8
q-20 0 -37 -7q-18 -8 -32 -21t-22 -30q-8 -18 -8 -38t8 -37q8 -18 22 -31q13 -14 31 -22t38 -8q21 0 39 8q17 8 30 22q12 13 20 31z" />
    <glyph glyph-name="plusminus" unicode="&#xb1;" horiz-adv-x="1053" 
d="M606 678v-424h-160v424h-421v158h421v424h160v-424h422v-158h-422zM25 0v160h1003v-160h-1003z" />
    <glyph glyph-name="uni00B2" unicode="&#xb2;" horiz-adv-x="350" 
d="M326 1415q0 -31 -6 -61q-6 -31 -17 -60l-131 -368l104 -2l-4 -107l-247 8l180 504q8 22 13 43t5 43q0 32 -10 53q-10 20 -27 31q-18 11 -42 14t-52 0l-12 103q8 2 16 2h17q46 0 85 -14t68 -40q28 -26 44 -63z" />
    <glyph glyph-name="uni00B3" unicode="&#xb3;" horiz-adv-x="383" 
d="M88 944q34 3 65 17q30 13 53 36q22 22 35 53q13 30 13 66t-13 67q-14 30 -37 53q-24 23 -55 37t-65 17l8 103h10q31 -2 56 16q24 17 24 51q0 26 -20 45q-21 19 -47 19q-11 0 -21 -4q-11 -4 -20 -9l-49 88q40 29 92 29q35 0 66 -13q31 -14 54 -37t37 -54q13 -31 13 -66
q0 -31 -12 -62q-12 -32 -33 -55q55 -38 86 -97q30 -60 30 -126q0 -55 -20 -103q-21 -49 -56 -86q-35 -38 -82 -62q-48 -24 -102 -29z" />
    <glyph glyph-name="acute" unicode="&#xb4;" horiz-adv-x="479" 
d="M102 1628l-53 109q44 21 85 42l80 40q39 20 80 40q40 20 83 42q6 -12 13 -27l14 -30q7 -15 14 -28l12 -24z" />
    <glyph glyph-name="mu" unicode="&#xb5;" horiz-adv-x="528" 
d="M504 240q0 -49 -19 -92q-19 -44 -52 -77t-76 -52q-44 -19 -93 -19q-21 0 -41 4q-21 4 -41 10v-342h-157v1588h157v-1020q0 -34 24 -57t58 -23t58 23t24 57v1020h158v-1020z" />
    <glyph glyph-name="paragraph" unicode="&#xb6;" horiz-adv-x="1163" 
d="M1012 1419v-1732h-160v1732h-66v-1732h-157v506q-85 11 -163 43q-78 31 -145 79q-68 47 -122 109q-55 62 -93 135q-39 73 -60 154t-21 168q0 96 25 185q25 88 71 166q45 77 109 141q63 63 141 109q77 45 166 70q88 25 184 25h418v-158h-127z" />
    <glyph glyph-name="periodcentered" unicode="&#xb7;" horiz-adv-x="348" 
d="M324 705q0 -31 -12 -58t-32 -47q-21 -21 -48 -33t-58 -12t-58 12t-47 33q-21 20 -32 47q-12 27 -12 58q0 30 12 57t33 47q20 20 47 32q27 11 57 11q31 0 58 -11q27 -12 48 -32q20 -20 32 -47z" />
    <glyph glyph-name="cedilla" unicode="&#xb8;" horiz-adv-x="426" 
d="M401 -240q0 -47 -18 -85q-19 -37 -50 -63t-71 -40q-41 -14 -86 -14q-40 0 -78 10q-39 11 -73 33l86 133q14 -10 31 -15q17 -4 34 -4q11 0 23 2t22 7q10 6 17 14q6 9 6 22q0 19 -23 31q-24 12 -55 18q-32 7 -62 9q-31 3 -45 4l93 266l149 -51l-33 -94q28 -12 52 -31
q24 -18 42 -42q18 -23 29 -51z" />
    <glyph glyph-name="uni00B9" unicode="&#xb9;" horiz-adv-x="279" 
d="M150 899l-19 551l-22 -25l-84 68l108 123l96 6l25 -719z" />
    <glyph glyph-name="ordmasculine" unicode="&#xba;" horiz-adv-x="711" 
d="M686 1194q0 -75 -19 -152q-20 -77 -60 -139q-41 -63 -103 -102q-63 -39 -150 -39t-149 40q-62 39 -102 102q-40 62 -59 139q-19 76 -19 151q0 50 9 101q8 51 26 99q17 48 44 90q26 42 63 73q36 31 83 49t104 18q86 0 149 -39t104 -101q40 -62 60 -138zM528 1194
q0 42 -7 89q-8 47 -27 88q-20 40 -54 67q-34 26 -86 26q-51 0 -83 -27q-33 -28 -52 -68q-20 -41 -27 -88q-8 -47 -8 -87q0 -38 8 -85q8 -48 28 -89q19 -42 52 -70t82 -28t83 28q33 28 53 69t29 89z" />
    <glyph glyph-name="guillemotright" unicode="&#xbb;" horiz-adv-x="684" 
d="M410 440l-119 105l160 188l-160 189l119 102l249 -291zM143 440l-118 105l159 188l-159 189l118 102l250 -291z" />
    <glyph glyph-name="onequarter" unicode="&#xbc;" horiz-adv-x="997" 
d="M158 0h-127l823 1577h119zM877 281l14 -254l-107 -4l-12 249l-203 -20l158 723l111 4l32 -592l93 10l8 -106zM754 594l-49 -221l61 4zM178 647l-22 766l-47 -57l-84 69l129 150l102 4l31 -930z" />
    <glyph glyph-name="onehalf" unicode="&#xbd;" horiz-adv-x="1061" 
d="M152 0h-127l823 1577h119zM1036 770q0 -40 -8 -79t-22 -77l-185 -516l146 -4l-4 -106l-291 8l233 655q11 29 18 60q7 30 7 61q0 33 -11 60t-30 47q-20 19 -47 30q-28 11 -62 11h-13q-7 0 -15 -2l-15 104q11 2 21 2h22q58 0 105 -18q47 -19 81 -52q33 -33 52 -80zM180 647
l-22 766l-47 -57l-84 69l129 150l102 4l31 -930z" />
    <glyph glyph-name="threequarters" unicode="&#xbe;" horiz-adv-x="1053" 
d="M213 0h-127l823 1577h119zM106 657q47 5 88 26t71 54t48 76q17 42 17 90t-18 92q-18 43 -49 77q-31 33 -73 54t-90 25l9 104h8q24 -1 45 7q20 8 36 22q15 14 24 35q9 20 9 45q0 21 -7 40q-8 19 -21 34q-14 14 -33 22t-41 8q-29 0 -53 -12l-51 92q23 14 50 21q26 6 52 6
q45 0 84 -17q38 -17 67 -46q29 -30 46 -69q16 -39 16 -83q0 -45 -19 -86t-53 -70q39 -24 70 -56q31 -33 54 -72q22 -39 34 -82q12 -44 12 -89q0 -68 -25 -129t-68 -109q-44 -48 -102 -78q-59 -31 -126 -38zM936 272h-94l-15 -254l-108 11l18 250l-202 2l243 698l113 -8
l-41 -590l92 -2zM682 385l61 -4l17 217z" />
    <glyph glyph-name="questiondown" unicode="&#xbf;" horiz-adv-x="782" 
d="M582 1137q0 -31 -12 -58t-32 -47q-21 -20 -48 -31q-27 -12 -58 -12t-57 12q-27 11 -47 31t-31 47q-12 27 -12 58t11 58t31 47t47 32q26 12 58 12q31 0 58 -12t48 -32q20 -20 32 -47zM758 -59q-19 -57 -54 -104q-36 -47 -83 -81q-48 -34 -104 -53q-56 -18 -116 -18
q-77 0 -145 29q-69 30 -120 81t-81 119t-30 145q0 76 27 140q27 63 68 121t88 112t88 111t68 120q27 62 27 136q0 17 -2 34q-3 16 -6 31l154 35q12 -50 12 -102q0 -90 -27 -164t-67 -137q-41 -63 -88 -118q-48 -55 -88 -106q-41 -52 -68 -104t-27 -109q0 -44 18 -84
q17 -39 47 -69q29 -29 69 -47q39 -17 83 -17q36 0 69 10q32 11 59 30q27 20 48 47q20 28 31 61z" />
    <glyph glyph-name="Agrave" unicode="&#xc0;" horiz-adv-x="715" 
d="M522 -41l-143 627l-131 -11l-53 -622l-158 14l123 1469l180 28l338 -1468zM283 1001l-21 -266l80 8zM395 1485l-84 42q-41 20 -81 40t-80 41q-40 20 -83 41l55 109l84 -42l80 -40q39 -20 79 -40q40 -21 83 -42z" />
    <glyph glyph-name="Aacute" unicode="&#xc1;" horiz-adv-x="715" 
d="M522 -41l-143 627l-131 -11l-53 -622l-158 14l123 1469l180 28l338 -1468zM283 1001l-21 -266l80 8zM116 1489l-53 109q44 21 85 42l80 40q39 20 80 40q40 20 83 42q6 -12 13 -27l14 -30q7 -15 14 -28l12 -24z" />
    <glyph glyph-name="Acircumflex" unicode="&#xc2;" horiz-adv-x="715" 
d="M522 -41l-143 627l-131 -11l-53 -622l-158 14l123 1469l180 28l338 -1468zM283 1001l-21 -266l80 8zM457 1430l-187 157l-188 -160l-78 93q68 58 133 113t133 112l265 -225z" />
    <glyph glyph-name="Atilde" unicode="&#xc3;" horiz-adv-x="715" 
d="M522 -41l-143 627l-131 -11l-53 -622l-158 14l123 1469l180 28l338 -1468zM283 1001l-21 -266l80 8zM356 1635q22 0 38 11t24 30l119 -17q-7 -32 -24 -58q-17 -27 -40 -47q-24 -20 -53 -31q-30 -11 -62 -11t-61 11q-30 11 -53 24q-19 8 -35 15q-17 7 -31 7q-17 0 -33 -12
q-16 -13 -24 -27q-32 5 -60 11t-59 12q8 29 25 55q16 25 40 44q23 18 51 29t60 11t61 -11t52 -24q18 -11 36 -16z" />
    <glyph glyph-name="Adieresis" unicode="&#xc4;" horiz-adv-x="715" 
d="M522 -41l-143 627l-131 -11l-53 -622l-158 14l123 1469l180 28l338 -1468zM283 1001l-21 -266l80 8zM477 1587q0 -40 -28 -68t-69 -28q-20 0 -37 8q-18 7 -31 20q-14 13 -22 31q-8 17 -8 37t8 38q8 17 22 30q13 13 31 21q17 7 37 7q41 0 69 -28zM239 1587q0 -21 -8 -38
q-8 -18 -21 -30q-14 -13 -31 -20q-18 -8 -38 -8q-40 0 -68 28t-28 68t28 68t68 28q20 0 38 -7q17 -8 31 -21q13 -13 21 -30z" />
    <glyph glyph-name="Aring" unicode="&#xc5;" horiz-adv-x="715" 
d="M442 1559q0 -51 -23 -93q-24 -43 -65 -71l324 -1399l-156 -37l-143 627l-131 -11l-53 -622l-158 14l119 1415q-48 25 -77 73q-30 47 -30 104q0 40 16 76q15 36 42 63q26 26 62 42q36 15 77 15q40 0 76 -15q36 -16 63 -42q26 -27 42 -63zM322 1559q0 30 -22 53
q-23 22 -54 22t-53 -22q-23 -23 -23 -53q0 -31 23 -52q22 -22 53 -22t54 22zM283 1001l-21 -266l80 8z" />
    <glyph glyph-name="AE" unicode="&#xc6;" horiz-adv-x="922" 
d="M526 -68l-84 711h-151l-109 -719l-157 23l225 1468l452 64l21 -158l-197 -27l21 -164l274 54l29 -156l-285 -55l99 -854l204 37l29 -154zM377 1206l-60 -401h107z" />
    <glyph glyph-name="Ccedilla" unicode="&#xc7;" horiz-adv-x="633" 
d="M508 -303q0 -47 -18 -85q-19 -37 -50 -64q-31 -26 -72 -40t-85 -14q-41 0 -79 10q-39 11 -73 33l86 133q14 -9 32 -14q17 -4 34 -4q10 0 22 2t22 7q10 6 17 14q6 9 6 22q0 19 -23 30q-24 12 -55 18q-31 7 -61 9q-31 3 -45 4l65 195q-46 32 -78 89q-32 56 -53 125
q-22 69 -34 146q-13 76 -19 149q-7 73 -8 137q-2 64 -2 108q0 45 3 121q3 75 14 162q10 87 30 176q20 88 54 160t84 118q50 45 120 45q57 0 95 -22q37 -22 60 -58q22 -36 31 -82t9 -94q0 -32 -2 -64t-7 -63l-155 20l6 62q2 30 2 61q0 9 -1 23t-4 27q-4 13 -12 23q-8 9 -22 9
q-34 0 -58 -39t-40 -99q-16 -61 -26 -135t-15 -143t-6 -125q-2 -57 -2 -83q0 -25 3 -81q2 -57 8 -127q6 -71 17 -145q10 -75 27 -137q16 -62 40 -101q23 -40 54 -40q25 0 42 11q17 10 28 27q11 16 18 36t12 40l152 -49q-15 -42 -33 -79t-42 -67q-24 -29 -56 -49
q-33 -19 -76 -26l-14 -41q28 -12 52 -31q24 -18 42 -41t29 -51z" />
    <glyph glyph-name="Egrave" unicode="&#xc8;" horiz-adv-x="618" 
d="M211 -55l-174 1497l350 47l21 -156l-195 -26l18 -164l275 53l29 -158l-285 -53l98 -854l207 39l27 -158zM414 1503l-84 42q-41 20 -81 40t-80 41q-40 20 -83 41l55 109l84 -42l80 -40q39 -20 79 -40q40 -21 83 -42z" />
    <glyph glyph-name="Eacute" unicode="&#xc9;" horiz-adv-x="618" 
d="M211 -55l-174 1497l350 47l21 -156l-195 -26l18 -164l275 53l29 -158l-285 -53l98 -854l207 39l27 -158zM161 1522l-53 109q44 21 85 42l80 40q39 20 80 40q40 20 83 42q6 -12 13 -27l14 -30q7 -15 14 -28l12 -24z" />
    <glyph glyph-name="Ecircumflex" unicode="&#xca;" horiz-adv-x="618" 
d="M211 -55l-174 1497l350 47l21 -156l-195 -26l18 -164l275 53l29 -158l-285 -53l98 -854l207 39l27 -158zM475 1510l-187 157l-188 -160l-78 93q68 58 133 113t133 112l265 -225z" />
    <glyph glyph-name="Edieresis" unicode="&#xcb;" horiz-adv-x="618" 
d="M211 -55l-174 1497l350 47l21 -156l-195 -26l18 -164l275 53l29 -158l-285 -53l98 -854l207 39l27 -158zM488 1604q0 -40 -28 -68t-69 -28q-20 0 -37 8q-18 7 -31 20q-14 13 -22 31q-8 17 -8 37t8 38q8 17 22 30q13 13 31 21q17 7 37 7q41 0 69 -28zM250 1604
q0 -21 -8 -38q-8 -18 -21 -30q-14 -13 -31 -20q-18 -8 -38 -8q-40 0 -68 28t-28 68t28 68t68 28q20 0 38 -7q17 -8 31 -21q13 -13 21 -30z" />
    <glyph glyph-name="Igrave" unicode="&#xcc;" horiz-adv-x="281" 
d="M86 -35l-49 1503l160 5l47 -1502zM266 1495l-84 42q-41 20 -81 40t-80 41q-40 20 -83 41l55 109l84 -42l80 -40q39 -20 79 -40q40 -21 83 -42z" />
    <glyph glyph-name="Iacute" unicode="&#xcd;" horiz-adv-x="281" 
d="M86 -35l-49 1503l160 5l47 -1502zM4 1509l-53 109q44 21 85 42l80 40q39 20 80 40q40 20 83 42q6 -12 13 -27l14 -30q7 -15 14 -28l12 -24z" />
    <glyph glyph-name="Icircumflex" unicode="&#xce;" horiz-adv-x="281" 
d="M86 -35l-49 1503l160 5l47 -1502zM305 1444l-187 157l-188 -160l-78 93q68 58 133 113t133 112l265 -225z" />
    <glyph glyph-name="Idieresis" unicode="&#xcf;" horiz-adv-x="281" 
d="M86 -35l-49 1503l160 5l47 -1502zM330 1624q0 -40 -28 -68t-69 -28q-20 0 -37 8q-18 7 -31 20q-14 13 -22 31q-8 17 -8 37t8 38q8 17 22 30q13 13 31 21q17 7 37 7q41 0 69 -28zM92 1624q0 -21 -8 -38q-8 -18 -21 -30q-14 -13 -31 -20q-18 -8 -38 -8q-40 0 -68 28t-28 68
t28 68t68 28q20 0 38 -7q17 -8 31 -21q13 -13 21 -30z" />
    <glyph glyph-name="Eth" unicode="&#xd0;" horiz-adv-x="614" 
d="M102 686l-73 -4l-4 160l77 2v635q46 -6 93 -15q77 -13 137 -56q59 -44 103 -106q44 -63 74 -140q29 -77 47 -156q18 -80 26 -158t8 -143q0 -61 -9 -135q-9 -75 -29 -152t-51 -150q-32 -74 -77 -132t-104 -95q-59 -38 -134 -43q-21 -2 -41 -2q-21 0 -43 -2v692zM430 725
q0 64 -8 138t-27 146t-51 137q-33 64 -82 111v-407l74 2l6 -158l-80 -2l-2 -495q49 43 82 107t53 137q19 72 27 147z" />
    <glyph glyph-name="Ntilde" unicode="&#xd1;" horiz-adv-x="731" 
d="M524 8l-327 1020v-1024h-160v1487h176l324 -1002v1012h157v-1493h-170zM462 1657q22 0 38 11t24 30l119 -17q-7 -32 -24 -58q-17 -27 -40 -47q-24 -20 -53 -31q-30 -11 -62 -11t-61 11q-30 11 -53 24q-19 8 -35 15q-17 7 -31 7q-17 0 -33 -12q-16 -13 -24 -27
q-32 5 -60 11t-59 12q8 29 25 55q16 25 40 44q23 18 51 29t60 11t61 -11t52 -24q18 -11 36 -16z" />
    <glyph glyph-name="Ograve" unicode="&#xd2;" 
d="M1212 715q0 -84 -16 -174q-17 -91 -49 -178q-33 -87 -82 -165q-49 -79 -114 -138t-146 -94q-82 -34 -180 -34t-179 34q-82 35 -147 94q-66 59 -115 137t-81 165q-33 87 -49 178q-17 90 -17 175q0 83 17 173t51 177q33 86 83 165q49 78 115 137q65 59 146 94q80 34 176 34
t177 -34q80 -35 146 -94q65 -59 115 -137q49 -79 82 -165q33 -87 50 -177zM1053 715q0 61 -11 131q-11 69 -34 138t-58 133t-82 113q-48 49 -108 78q-61 29 -135 29t-134 -29q-61 -29 -108 -77q-48 -49 -83 -112q-36 -64 -59 -133q-23 -70 -34 -140q-12 -70 -12 -131
t12 -131q11 -71 34 -140q23 -70 59 -134q35 -64 83 -113q47 -49 108 -78q60 -29 134 -29t135 30q60 29 108 78q47 49 82 113t58 134q23 69 34 139zM787 1513l-84 42q-41 20 -81 40t-80 41q-40 20 -83 41l55 109l84 -42l80 -40q39 -20 79 -40q40 -21 83 -42z" />
    <glyph glyph-name="Oacute" unicode="&#xd3;" 
d="M1212 715q0 -84 -16 -174q-17 -91 -49 -178q-33 -87 -82 -165q-49 -79 -114 -138t-146 -94q-82 -34 -180 -34t-179 34q-82 35 -147 94q-66 59 -115 137t-81 165q-33 87 -49 178q-17 90 -17 175q0 83 17 173t51 177q33 86 83 165q49 78 115 137q65 59 146 94q80 34 176 34
t177 -34q80 -35 146 -94q65 -59 115 -137q49 -79 82 -165q33 -87 50 -177zM1053 715q0 61 -11 131q-11 69 -34 138t-58 133t-82 113q-48 49 -108 78q-61 29 -135 29t-134 -29q-61 -29 -108 -77q-48 -49 -83 -112q-36 -64 -59 -133q-23 -70 -34 -140q-12 -70 -12 -131
t12 -131q11 -71 34 -140q23 -70 59 -134q35 -64 83 -113q47 -49 108 -78q60 -29 134 -29t135 30q60 29 108 78q47 49 82 113t58 134q23 69 34 139zM458 1503l-53 109q44 21 85 42l80 40q39 20 80 40q40 20 83 42q6 -12 13 -27l14 -30q7 -15 14 -28l12 -24z" />
    <glyph glyph-name="Ocircumflex" unicode="&#xd4;" 
d="M1212 715q0 -84 -16 -174q-17 -91 -49 -178q-33 -87 -82 -165q-49 -79 -114 -138t-146 -94q-82 -34 -180 -34t-179 34q-82 35 -147 94q-66 59 -115 137t-81 165q-33 87 -49 178q-17 90 -17 175q0 83 17 173t51 177q33 86 83 165q49 78 115 137q65 59 146 94q80 34 176 34
t177 -34q80 -35 146 -94q65 -59 115 -137q49 -79 82 -165q33 -87 50 -177zM1053 715q0 61 -11 131q-11 69 -34 138t-58 133t-82 113q-48 49 -108 78q-61 29 -135 29t-134 -29q-61 -29 -108 -77q-48 -49 -83 -112q-36 -64 -59 -133q-23 -70 -34 -140q-12 -70 -12 -131
t12 -131q11 -71 34 -140q23 -70 59 -134q35 -64 83 -113q47 -49 108 -78q60 -29 134 -29t135 30q60 29 108 78q47 49 82 113t58 134q23 69 34 139zM801 1510l-187 157l-188 -160l-78 93q68 58 133 113t133 112l265 -225z" />
    <glyph glyph-name="Otilde" unicode="&#xd5;" 
d="M1212 715q0 -84 -16 -174q-17 -91 -49 -178q-33 -87 -82 -165q-49 -79 -114 -138t-146 -94q-82 -34 -180 -34t-179 34q-82 35 -147 94q-66 59 -115 137t-81 165q-33 87 -49 178q-17 90 -17 175q0 83 17 173t51 177q33 86 83 165q49 78 115 137q65 59 146 94q80 34 176 34
t177 -34q80 -35 146 -94q65 -59 115 -137q49 -79 82 -165q33 -87 50 -177zM1053 715q0 61 -11 131q-11 69 -34 138t-58 133t-82 113q-48 49 -108 78q-61 29 -135 29t-134 -29q-61 -29 -108 -77q-48 -49 -83 -112q-36 -64 -59 -133q-23 -70 -34 -140q-12 -70 -12 -131
t12 -131q11 -71 34 -140q23 -70 59 -134q35 -64 83 -113q47 -49 108 -78q60 -29 134 -29t135 30q60 29 108 78q47 49 82 113t58 134q23 69 34 139zM710 1671q22 0 38 11t24 30l119 -17q-7 -32 -24 -58q-17 -27 -40 -47q-24 -20 -53 -31q-30 -11 -62 -11t-61 11
q-30 11 -53 24q-19 8 -35 15q-17 7 -31 7q-17 0 -33 -12q-16 -13 -24 -27q-32 5 -60 11t-59 12q8 29 25 55q16 25 40 44q23 18 51 29t60 11t61 -11t52 -24q18 -11 36 -16z" />
    <glyph glyph-name="Odieresis" unicode="&#xd6;" 
d="M1212 715q0 -84 -16 -174q-17 -91 -49 -178q-33 -87 -82 -165q-49 -79 -114 -138t-146 -94q-82 -34 -180 -34t-179 34q-82 35 -147 94q-66 59 -115 137t-81 165q-33 87 -49 178q-17 90 -17 175q0 83 17 173t51 177q33 86 83 165q49 78 115 137q65 59 146 94q80 34 176 34
t177 -34q80 -35 146 -94q65 -59 115 -137q49 -79 82 -165q33 -87 50 -177zM1053 715q0 61 -11 131q-11 69 -34 138t-58 133t-82 113q-48 49 -108 78q-61 29 -135 29t-134 -29q-61 -29 -108 -77q-48 -49 -83 -112q-36 -64 -59 -133q-23 -70 -34 -140q-12 -70 -12 -131
t12 -131q11 -71 34 -140q23 -70 59 -134q35 -64 83 -113q47 -49 108 -78q60 -29 134 -29t135 30q60 29 108 78q47 49 82 113t58 134q23 69 34 139zM822 1647q0 -40 -28 -68t-69 -28q-20 0 -37 8q-18 7 -31 20q-14 13 -22 31q-8 17 -8 37t8 38q8 17 22 30q13 13 31 21
q17 7 37 7q41 0 69 -28zM584 1647q0 -21 -8 -38q-8 -18 -21 -30q-14 -13 -31 -20q-18 -8 -38 -8q-40 0 -68 28t-28 68t28 68t68 28q20 0 38 -7q17 -8 31 -21q13 -13 21 -30z" />
    <glyph glyph-name="multiply" unicode="&#xd7;" horiz-adv-x="944" 
d="M807 309l-336 336l-334 -336l-112 113l333 336l-333 334l112 114l334 -336l336 336l113 -114l-336 -334l336 -336z" />
    <glyph glyph-name="Oslash" unicode="&#xd8;" horiz-adv-x="1225" 
d="M1200 721q0 -84 -16 -174q-17 -91 -49 -178q-33 -88 -82 -166t-114 -137q-66 -60 -147 -95q-82 -34 -180 -34q-114 0 -208 46q-94 47 -168 132l-76 -113l-133 90l112 162q-57 106 -85 226q-29 120 -29 241q0 82 15 172q15 89 47 176q31 87 79 165t113 138q65 59 148 94
t185 35q88 0 163 -26q74 -27 143 -82l77 114l131 -88l-98 -145q41 -58 73 -125t54 -138q22 -72 34 -146zM827 1262q-93 81 -215 81q-79 0 -141 -29q-63 -29 -110 -77q-48 -49 -82 -112q-34 -64 -55 -133q-22 -70 -32 -140t-10 -131q0 -79 17 -160q16 -81 45 -153zM1040 721
q0 51 -7 105q-8 54 -22 108q-14 53 -34 104q-20 50 -45 95l-602 -881q51 -71 122 -113q71 -43 160 -43q74 0 135 30q60 29 108 78q47 49 82 113t58 134q23 69 34 139z" />
    <glyph glyph-name="Ugrave" unicode="&#xd9;" horiz-adv-x="553" 
d="M516 258q0 -49 -19 -92q-19 -44 -51 -77q-33 -33 -77 -52t-93 -19q-50 0 -93 19q-44 19 -76 52q-33 32 -51 76q-19 43 -19 93v1225h158v-1225q0 -34 24 -57q23 -23 57 -23q16 0 31 7q14 6 25 17t18 26q6 14 6 30v1225h160v-1225zM418 1532l-84 42q-41 20 -81 40t-80 41
q-40 20 -83 41l55 109l84 -42l80 -40q39 -20 79 -40q40 -21 83 -42z" />
    <glyph glyph-name="Uacute" unicode="&#xda;" horiz-adv-x="553" 
d="M516 258q0 -49 -19 -92q-19 -44 -51 -77q-33 -33 -77 -52t-93 -19q-50 0 -93 19q-44 19 -76 52q-33 32 -51 76q-19 43 -19 93v1225h158v-1225q0 -34 24 -57q23 -23 57 -23q16 0 31 7q14 6 25 17t18 26q6 14 6 30v1225h160v-1225zM133 1536l-53 109q44 21 85 42l80 40
q39 20 80 40q40 20 83 42q6 -12 13 -27l14 -30q7 -15 14 -28l12 -24z" />
    <glyph glyph-name="Ucircumflex" unicode="&#xdb;" horiz-adv-x="553" 
d="M516 258q0 -49 -19 -92q-19 -44 -51 -77q-33 -33 -77 -52t-93 -19q-50 0 -93 19q-44 19 -76 52q-33 32 -51 76q-19 43 -19 93v1225h158v-1225q0 -34 24 -57q23 -23 57 -23q16 0 31 7q14 6 25 17t18 26q6 14 6 30v1225h160v-1225zM473 1518l-187 157l-188 -160l-78 93
q68 58 133 113t133 112l265 -225z" />
    <glyph glyph-name="Udieresis" unicode="&#xdc;" horiz-adv-x="553" 
d="M516 258q0 -49 -19 -92q-19 -44 -51 -77q-33 -33 -77 -52t-93 -19q-50 0 -93 19q-44 19 -76 52q-33 32 -51 76q-19 43 -19 93v1225h158v-1225q0 -34 24 -57q23 -23 57 -23q16 0 31 7q14 6 25 17t18 26q6 14 6 30v1225h160v-1225zM496 1643q0 -40 -28 -68t-69 -28
q-20 0 -37 8q-18 7 -31 20q-14 13 -22 31q-8 17 -8 37t8 38q8 17 22 30q13 13 31 21q17 7 37 7q41 0 69 -28zM258 1643q0 -21 -8 -38q-8 -18 -21 -30q-14 -13 -31 -20q-18 -8 -38 -8q-40 0 -68 28t-28 68t28 68t68 28q20 0 38 -7q17 -8 31 -21q13 -13 21 -30z" />
    <glyph glyph-name="Yacute" unicode="&#xdd;" horiz-adv-x="612" 
d="M575 1427q-17 -66 -29 -110t-20 -77q-9 -34 -16 -62q-8 -28 -17 -61q-9 -34 -20 -79q-12 -45 -29 -111t-41 -159q-25 -94 -59 -225q-5 -98 -7 -159q-3 -61 -5 -99q-2 -39 -3 -62q-1 -24 -2 -46t-2 -50q-1 -29 -3 -78l-160 6q6 116 12 242t14 250q-31 227 -72 459
q-42 231 -79 454l158 25l88 -549l139 532zM186 1532l-53 109q44 21 85 42l80 40q39 20 80 40q40 20 83 42q6 -12 13 -27l14 -30q7 -15 14 -28l12 -24z" />
    <glyph glyph-name="Thorn" unicode="&#xde;" horiz-adv-x="510" 
d="M184 -10l-159 6l51 1552l160 -4l-15 -448q55 -2 103 -25t84 -60t57 -86q20 -49 20 -104q0 -56 -22 -108q-23 -52 -61 -91q-39 -39 -90 -61q-52 -22 -109 -18zM328 817q0 50 -31 84q-32 34 -82 37l-6 -236q24 0 46 9q21 9 38 25q16 15 26 36z" />
    <glyph glyph-name="germandbls" unicode="&#xdf;" horiz-adv-x="737" 
d="M709 1163q-34 0 -62 -7t-48 -23t-31 -41t-11 -62q0 -9 1 -18t3 -19l88 -624q3 -22 4 -42v-42q0 -72 -23 -135q-23 -64 -65 -111q-43 -48 -103 -75t-134 -27q-28 0 -56 6l27 155q8 -2 15 -3q6 -1 14 -1q41 0 73 16q31 15 52 42q21 26 32 61t11 74q0 15 -1 31q-1 15 -3 30
l-89 623q-2 15 -3 31q-1 15 -1 30q0 72 23 127q23 54 65 91q41 36 99 55q58 18 127 18zM459 1288q-71 0 -110 -30q-40 -30 -40 -105v-17q0 -9 2 -18l88 -624q3 -22 5 -42q2 -21 2 -42q0 -72 -23 -136t-65 -111q-43 -47 -103 -74q-60 -28 -135 -28q-14 0 -27 2q-14 1 -28 3
l26 157q8 -2 14 -2h15q41 0 73 15q31 15 52 41q21 25 32 60q11 34 11 73q0 15 -2 31l-4 30l-88 627q-2 11 -2 22v23q0 150 83 227q82 76 230 76z" />
    <glyph glyph-name="agrave" unicode="&#xe0;" horiz-adv-x="713" 
d="M518 -37l-53 639l-131 8l-144 -606l-153 37l336 1436l180 2l123 -1504zM430 1028l-59 -260l82 -4zM504 1528l-84 42q-41 20 -81 40t-80 41q-40 20 -83 41l55 109l84 -42l80 -40q39 -20 79 -40q40 -21 83 -42z" />
    <glyph glyph-name="aacute" unicode="&#xe1;" horiz-adv-x="713" 
d="M518 -37l-53 639l-131 8l-144 -606l-153 37l336 1436l180 2l123 -1504zM430 1028l-59 -260l82 -4zM252 1517l-53 109q44 21 85 42l80 40q39 20 80 40q40 20 83 42q6 -12 13 -27l14 -30q7 -15 14 -28l12 -24z" />
    <glyph glyph-name="acircumflex" unicode="&#xe2;" horiz-adv-x="713" 
d="M518 -37l-53 639l-131 8l-144 -606l-153 37l336 1436l180 2l123 -1504zM430 1028l-59 -260l82 -4zM645 1473l-187 157l-188 -160l-78 93q68 58 133 113t133 112l265 -225z" />
    <glyph glyph-name="atilde" unicode="&#xe3;" horiz-adv-x="713" 
d="M518 -37l-53 639l-131 8l-144 -606l-153 37l336 1436l180 2l123 -1504zM430 1028l-59 -260l82 -4zM557 1637q22 0 38 11t24 30l119 -17q-7 -32 -24 -58q-17 -27 -40 -47q-24 -20 -53 -31q-30 -11 -62 -11t-61 11q-30 11 -53 24q-19 8 -35 15q-17 7 -31 7q-17 0 -33 -12
q-16 -13 -24 -27q-32 5 -60 11t-59 12q8 29 25 55q16 25 40 44q23 18 51 29t60 11t61 -11t52 -24q18 -11 36 -16z" />
    <glyph glyph-name="adieresis" unicode="&#xe4;" horiz-adv-x="713" 
d="M518 -37l-53 639l-131 8l-144 -606l-153 37l336 1436l180 2l123 -1504zM430 1028l-59 -260l82 -4zM678 1624q0 -40 -28 -68t-69 -28q-20 0 -37 8q-18 7 -31 20q-14 13 -22 31q-8 17 -8 37t8 38q8 17 22 30q13 13 31 21q17 7 37 7q41 0 69 -28zM440 1624q0 -21 -8 -38
q-8 -18 -21 -30q-14 -13 -31 -20q-18 -8 -38 -8q-40 0 -68 28t-28 68t28 68t68 28q20 0 38 -7q17 -8 31 -21q13 -13 21 -30z" />
    <glyph glyph-name="aring" unicode="&#xe5;" horiz-adv-x="713" 
d="M668 1606q0 -59 -30 -106q-31 -48 -81 -73l119 -1452l-158 -12l-53 639l-131 8l-144 -606l-153 37l328 1399q-42 26 -66 70q-25 43 -25 96q0 40 16 76q15 36 42 63q26 26 62 42q36 15 77 15t77 -15q36 -16 63 -42q26 -27 42 -63zM547 1606q0 31 -22 53q-23 22 -54 22
t-53 -22q-23 -22 -23 -53t23 -52q22 -22 53 -22t54 22zM430 1028l-59 -260l82 -4z" />
    <glyph glyph-name="ae" unicode="&#xe6;" horiz-adv-x="981" 
d="M668 1047l10 -861l207 17l12 -158l-377 -31l-8 721l-152 10l-182 -704l-153 41l372 1438l457 14l6 -158l-198 -8l2 -164l278 25l14 -158zM504 1298l-103 -395l109 -10z" />
    <glyph glyph-name="ccedilla" unicode="&#xe7;" horiz-adv-x="680" 
d="M520 -287q0 -47 -18 -85q-19 -37 -50 -63t-71 -40q-41 -14 -86 -14q-40 0 -79 10q-39 11 -73 33l86 133q14 -10 32 -15q17 -4 34 -4q11 0 23 2t22 7q9 6 16 14q6 9 6 22q0 19 -23 31q-24 12 -55 18q-31 7 -61 9q-31 3 -45 4l78 225q-48 42 -83 111t-59 152
q-25 82 -40 172q-15 89 -23 173t-11 156t-3 119q0 45 2 109t11 134t27 139q17 68 47 123t75 89t110 34q62 0 101 -29t61 -74q21 -45 29 -99t8 -103q0 -17 -1 -32q-1 -16 -1 -33l-156 10v28q0 19 -1 42q-2 22 -4 46q-3 23 -8 43q-5 19 -13 32q-8 12 -19 12q-28 0 -47 -27
t-31 -68q-13 -42 -20 -93t-10 -99t-3 -87q-1 -39 -1 -58q0 -23 2 -71t7 -110q4 -62 12 -133q8 -72 20 -143q11 -71 26 -136q15 -66 35 -116q20 -51 45 -81t55 -30q24 0 40 12q16 11 27 29q10 17 16 38q5 21 9 40l156 -37q-12 -48 -31 -91q-19 -44 -47 -76q-29 -33 -68 -53
q-40 -20 -94 -21l-16 -47q28 -12 52 -31q24 -18 42 -42q18 -23 29 -51z" />
    <glyph glyph-name="egrave" unicode="&#xe8;" horiz-adv-x="569" 
d="M242 1004l-39 -861l209 7l4 -158l-379 -10l67 1507l355 -10l-6 -158l-197 4l-8 -164l280 8l4 -157zM436 1542l-84 42q-41 20 -81 40t-80 41q-40 20 -83 41l55 109l84 -42l80 -40q39 -20 79 -40q40 -21 83 -42z" />
    <glyph glyph-name="eacute" unicode="&#xe9;" horiz-adv-x="569" 
d="M242 1004l-39 -861l209 7l4 -158l-379 -10l67 1507l355 -10l-6 -158l-197 4l-8 -164l280 8l4 -157zM172 1540l-53 109q44 21 85 42l80 40q39 20 80 40q40 20 83 42q6 -12 13 -27l14 -30q7 -15 14 -28l12 -24z" />
    <glyph glyph-name="ecircumflex" unicode="&#xea;" horiz-adv-x="569" 
d="M242 1004l-39 -861l209 7l4 -158l-379 -10l67 1507l355 -10l-6 -158l-197 4l-8 -164l280 8l4 -157zM463 1510l-187 157l-188 -160l-78 93q68 58 133 113t133 112l265 -225z" />
    <glyph glyph-name="edieresis" unicode="&#xeb;" horiz-adv-x="569" 
d="M242 1004l-39 -861l209 7l4 -158l-379 -10l67 1507l355 -10l-6 -158l-197 4l-8 -164l280 8l4 -157zM482 1620q0 -40 -28 -68t-69 -28q-20 0 -37 8q-18 7 -31 20q-14 13 -22 31q-8 17 -8 37t8 38q8 17 22 30q13 13 31 21q17 7 37 7q41 0 69 -28zM244 1620q0 -21 -8 -38
q-8 -18 -21 -30q-14 -13 -31 -20q-18 -8 -38 -8q-40 0 -68 28t-28 68t28 68t68 28q20 0 38 -7q17 -8 31 -21q13 -13 21 -30z" />
    <glyph glyph-name="igrave" unicode="&#xec;" horiz-adv-x="244" 
d="M59 -35l-49 1503l160 5l47 -1502zM238 1517l-84 42q-41 20 -81 40t-80 41q-40 20 -83 41l55 109l84 -42l80 -40q39 -20 79 -40q40 -21 83 -42z" />
    <glyph glyph-name="iacute" unicode="&#xed;" horiz-adv-x="244" 
d="M59 -35l-49 1503l160 5l47 -1502zM-25 1511l-53 109q44 21 85 42l80 40q39 20 80 40q40 20 83 42q6 -12 13 -27l14 -30q7 -15 14 -28l12 -24z" />
    <glyph glyph-name="icircumflex" unicode="&#xee;" horiz-adv-x="244" 
d="M59 -35l-49 1503l160 5l47 -1502zM277 1481l-187 157l-188 -160l-78 93q68 58 133 113t133 112l265 -225z" />
    <glyph glyph-name="idieresis" unicode="&#xef;" horiz-adv-x="244" 
d="M59 -35l-49 1503l160 5l47 -1502zM316 1632q0 -40 -28 -68t-69 -28q-20 0 -37 8q-18 7 -31 20q-14 13 -22 31q-8 17 -8 37t8 38q8 17 22 30q13 13 31 21q17 7 37 7q41 0 69 -28zM78 1632q0 -21 -8 -38q-8 -18 -21 -30q-14 -13 -31 -20q-18 -8 -38 -8q-40 0 -68 28t-28 68
t28 68t68 28q20 0 38 -7q17 -8 31 -21q13 -13 21 -30z" />
    <glyph glyph-name="eth" unicode="&#xf0;" horiz-adv-x="614" 
d="M102 760l-71 -2l-6 157l77 3l2 634l93 -12q77 -12 137 -55q59 -43 103 -105q43 -63 73 -140q29 -78 47 -158t26 -158q7 -78 7 -142q0 -61 -9 -135q-9 -75 -29 -152t-51 -150q-32 -74 -77 -132q-45 -59 -104 -96q-59 -38 -134 -43q-21 -2 -41 -2q-21 0 -43 -2v690z
M432 805q0 64 -8 137t-27 145q-20 71 -52 135q-33 64 -81 111l-2 -409l74 4l6 -160l-80 -2v-496q48 44 81 110q33 65 53 139q19 74 28 149z" />
    <glyph glyph-name="ntilde" unicode="&#xf1;" horiz-adv-x="811" 
d="M694 12l-170 8l-274 1035l-53 -1022l-160 10l80 1483l174 -10l270 -1016l53 1011l160 -10zM536 1661q22 0 38 11t24 30l119 -17q-7 -32 -24 -58q-17 -27 -40 -47q-24 -20 -53 -31q-30 -11 -62 -11t-61 11q-30 11 -53 24q-19 8 -35 15q-17 7 -31 7q-17 0 -33 -12
q-16 -13 -24 -27q-32 5 -60 11t-59 12q8 29 25 55q16 25 40 44q23 18 51 29t60 11t61 -11t52 -24q18 -11 36 -16z" />
    <glyph glyph-name="ograve" unicode="&#xf2;" horiz-adv-x="1030" 
d="M993 729q0 -70 -12 -144q-13 -74 -39 -143q-26 -70 -65 -132q-39 -63 -92 -109q-53 -47 -120 -74q-68 -27 -149 -27q-82 0 -149 27q-68 27 -121 73t-92 108q-40 62 -66 132t-38 144q-13 74 -13 145q0 70 13 144t40 144q26 70 66 132q39 62 92 109q53 46 120 73t148 27
q79 0 146 -27q66 -28 119 -75t93 -109q40 -63 67 -133q26 -70 39 -143zM834 729q0 47 -7 100q-8 53 -24 106q-17 52 -42 100q-25 47 -60 84q-36 36 -82 58q-46 21 -103 21q-58 0 -104 -21q-46 -22 -81 -58q-36 -36 -61 -83q-25 -48 -41 -100q-17 -53 -24 -106
q-8 -53 -8 -101q0 -47 8 -100q7 -54 24 -106q16 -53 41 -101t61 -84q35 -37 81 -58q46 -22 104 -22q57 0 103 22t82 59q35 36 60 84t42 101q16 52 24 105zM670 1386l-84 42q-41 20 -81 40t-80 41q-40 20 -83 41l55 109l84 -42l80 -40q39 -20 79 -40q40 -21 83 -42z" />
    <glyph glyph-name="oacute" unicode="&#xf3;" horiz-adv-x="1030" 
d="M993 729q0 -70 -12 -144q-13 -74 -39 -143q-26 -70 -65 -132q-39 -63 -92 -109q-53 -47 -120 -74q-68 -27 -149 -27q-82 0 -149 27q-68 27 -121 73t-92 108q-40 62 -66 132t-38 144q-13 74 -13 145q0 70 13 144t40 144q26 70 66 132q39 62 92 109q53 46 120 73t148 27
q79 0 146 -27q66 -28 119 -75t93 -109q40 -63 67 -133q26 -70 39 -143zM834 729q0 47 -7 100q-8 53 -24 106q-17 52 -42 100q-25 47 -60 84q-36 36 -82 58q-46 21 -103 21q-58 0 -104 -21q-46 -22 -81 -58q-36 -36 -61 -83q-25 -48 -41 -100q-17 -53 -24 -106
q-8 -53 -8 -101q0 -47 8 -100q7 -54 24 -106q16 -53 41 -101t61 -84q35 -37 81 -58q46 -22 104 -22q57 0 103 22t82 59q35 36 60 84t42 101q16 52 24 105zM387 1392l-53 109q44 21 85 42l80 40q39 20 80 40q40 20 83 42q6 -12 13 -27l14 -30q7 -15 14 -28l12 -24z" />
    <glyph glyph-name="ocircumflex" unicode="&#xf4;" horiz-adv-x="1030" 
d="M993 729q0 -70 -12 -144q-13 -74 -39 -143q-26 -70 -65 -132q-39 -63 -92 -109q-53 -47 -120 -74q-68 -27 -149 -27q-82 0 -149 27q-68 27 -121 73t-92 108q-40 62 -66 132t-38 144q-13 74 -13 145q0 70 13 144t40 144q26 70 66 132q39 62 92 109q53 46 120 73t148 27
q79 0 146 -27q66 -28 119 -75t93 -109q40 -63 67 -133q26 -70 39 -143zM834 729q0 47 -7 100q-8 53 -24 106q-17 52 -42 100q-25 47 -60 84q-36 36 -82 58q-46 21 -103 21q-58 0 -104 -21q-46 -22 -81 -58q-36 -36 -61 -83q-25 -48 -41 -100q-17 -53 -24 -106
q-8 -53 -8 -101q0 -47 8 -100q7 -54 24 -106q16 -53 41 -101t61 -84q35 -37 81 -58q46 -22 104 -22q57 0 103 22t82 59q35 36 60 84t42 101q16 52 24 105zM694 1362l-187 157l-188 -160l-78 93q68 58 133 113t133 112l265 -225z" />
    <glyph glyph-name="otilde" unicode="&#xf5;" horiz-adv-x="1030" 
d="M993 729q0 -70 -12 -144q-13 -74 -39 -143q-26 -70 -65 -132q-39 -63 -92 -109q-53 -47 -120 -74q-68 -27 -149 -27q-82 0 -149 27q-68 27 -121 73t-92 108q-40 62 -66 132t-38 144q-13 74 -13 145q0 70 13 144t40 144q26 70 66 132q39 62 92 109q53 46 120 73t148 27
q79 0 146 -27q66 -28 119 -75t93 -109q40 -63 67 -133q26 -70 39 -143zM834 729q0 47 -7 100q-8 53 -24 106q-17 52 -42 100q-25 47 -60 84q-36 36 -82 58q-46 21 -103 21q-58 0 -104 -21q-46 -22 -81 -58q-36 -36 -61 -83q-25 -48 -41 -100q-17 -53 -24 -106
q-8 -53 -8 -101q0 -47 8 -100q7 -54 24 -106q16 -53 41 -101t61 -84q35 -37 81 -58q46 -22 104 -22q57 0 103 22t82 59q35 36 60 84t42 101q16 52 24 105zM587 1536q22 0 38 11t24 30l119 -17q-7 -32 -24 -58q-17 -27 -40 -47q-24 -20 -53 -31q-30 -11 -62 -11t-61 11
q-30 11 -53 24q-19 8 -35 15q-17 7 -31 7q-17 0 -33 -12q-16 -13 -24 -27q-32 5 -60 11t-59 12q8 29 25 55q16 25 40 44q23 18 51 29t60 11t61 -11t52 -24q18 -11 36 -16z" />
    <glyph glyph-name="odieresis" unicode="&#xf6;" horiz-adv-x="1030" 
d="M993 729q0 -70 -12 -144q-13 -74 -39 -143q-26 -70 -65 -132q-39 -63 -92 -109q-53 -47 -120 -74q-68 -27 -149 -27q-82 0 -149 27q-68 27 -121 73t-92 108q-40 62 -66 132t-38 144q-13 74 -13 145q0 70 13 144t40 144q26 70 66 132q39 62 92 109q53 46 120 73t148 27
q79 0 146 -27q66 -28 119 -75t93 -109q40 -63 67 -133q26 -70 39 -143zM834 729q0 47 -7 100q-8 53 -24 106q-17 52 -42 100q-25 47 -60 84q-36 36 -82 58q-46 21 -103 21q-58 0 -104 -21q-46 -22 -81 -58q-36 -36 -61 -83q-25 -48 -41 -100q-17 -53 -24 -106
q-8 -53 -8 -101q0 -47 8 -100q7 -54 24 -106q16 -53 41 -101t61 -84q35 -37 81 -58q46 -22 104 -22q57 0 103 22t82 59q35 36 60 84t42 101q16 52 24 105zM707 1522q0 -40 -28 -68t-69 -28q-20 0 -37 8q-18 7 -31 20q-14 13 -22 31q-8 17 -8 37t8 38q8 17 22 30q13 13 31 21
q17 7 37 7q41 0 69 -28zM469 1522q0 -21 -8 -38q-8 -18 -21 -30q-14 -13 -31 -20q-18 -8 -38 -8q-40 0 -68 28t-28 68t28 68t68 28q20 0 38 -7q17 -8 31 -21q13 -13 21 -30z" />
    <glyph glyph-name="divide" unicode="&#xf7;" horiz-adv-x="1053" 
d="M645 1024q0 -25 -9 -46q-10 -22 -26 -37q-16 -16 -37 -25q-22 -9 -47 -9q-24 0 -45 9q-22 9 -37 25q-16 15 -25 37q-9 21 -9 46q0 24 10 45q9 21 25 37q15 16 36 26q21 9 45 9q25 0 47 -9q21 -9 37 -25t26 -37zM25 678v158h1003v-158h-1003zM645 492q0 -25 -9 -46
q-10 -22 -26 -38t-37 -25q-22 -10 -47 -10q-24 0 -45 10q-22 9 -37 25q-16 16 -25 38q-9 21 -9 46q0 24 9 46q9 21 25 37q15 15 37 24q21 9 45 9q25 0 47 -9q21 -9 37 -24q16 -16 26 -37z" />
    <glyph glyph-name="oslash" unicode="&#xf8;" horiz-adv-x="1225" 
d="M1200 721q0 -84 -16 -174q-17 -91 -49 -178q-33 -88 -82 -166t-114 -137q-66 -60 -147 -95q-82 -34 -180 -34q-114 0 -208 46q-94 47 -168 132l-76 -113l-133 90l112 162q-57 106 -85 226q-29 120 -29 241q0 82 18 172q17 89 51 176t84 165q49 78 115 138q65 59 145 94
t174 35q88 0 163 -26q74 -27 143 -82l77 114l131 -88l-98 -145q41 -58 73 -125t54 -138q22 -72 34 -146zM827 1262q-93 81 -215 81q-74 0 -134 -29q-61 -29 -108 -77q-48 -49 -83 -112q-36 -64 -59 -133q-23 -70 -34 -140q-12 -70 -12 -131q0 -79 17 -160q16 -81 45 -153z
M1040 721q0 51 -7 105q-8 54 -22 108q-14 53 -34 104q-20 50 -45 95l-602 -881q51 -71 122 -113q71 -43 160 -43q74 0 135 30q60 29 108 78q47 49 82 113t58 134q23 69 34 139z" />
    <glyph glyph-name="ugrave" unicode="&#xf9;" horiz-adv-x="616" 
d="M518 266q-2 -48 -21 -89q-20 -42 -52 -72q-33 -31 -75 -48q-43 -18 -91 -18t-91 19q-44 18 -77 50t-52 75q-20 43 -20 93v13l63 1224l158 -8l-61 -1224q2 -39 25 -60q23 -22 57 -22q32 0 55 21q22 20 24 54l62 1223l158 -8zM486 1526l-84 42q-41 20 -81 40t-80 41
q-40 20 -83 41l55 109l84 -42l80 -40q39 -20 79 -40q40 -21 83 -42z" />
    <glyph glyph-name="uacute" unicode="&#xfa;" horiz-adv-x="616" 
d="M518 266q-2 -48 -21 -89q-20 -42 -52 -72q-33 -31 -75 -48q-43 -18 -91 -18t-91 19q-44 18 -77 50t-52 75q-20 43 -20 93v13l63 1224l158 -8l-61 -1224q2 -39 25 -60q23 -22 57 -22q32 0 55 21q22 20 24 54l62 1223l158 -8zM213 1542l-53 109q44 21 85 42l80 40
q39 20 80 40q40 20 83 42q6 -12 13 -27l14 -30q7 -15 14 -28l12 -24z" />
    <glyph glyph-name="ucircumflex" unicode="&#xfb;" horiz-adv-x="616" 
d="M518 266q-2 -48 -21 -89q-20 -42 -52 -72q-33 -31 -75 -48q-43 -18 -91 -18t-91 19q-44 18 -77 50t-52 75q-20 43 -20 93v13l63 1224l158 -8l-61 -1224q2 -39 25 -60q23 -22 57 -22q32 0 55 21q22 20 24 54l62 1223l158 -8zM518 1547l-187 157l-188 -160l-78 93
q68 58 133 113t133 112l265 -225z" />
    <glyph glyph-name="udieresis" unicode="&#xfc;" horiz-adv-x="616" 
d="M518 266q-2 -48 -21 -89q-20 -42 -52 -72q-33 -31 -75 -48q-43 -18 -91 -18t-91 19q-44 18 -77 50t-52 75q-20 43 -20 93v13l63 1224l158 -8l-61 -1224q2 -39 25 -60q23 -22 57 -22q32 0 55 21q22 20 24 54l62 1223l158 -8zM557 1655q0 -40 -28 -68t-69 -28q-20 0 -37 8
q-18 7 -31 20q-14 13 -22 31q-8 17 -8 37t8 38q8 17 22 30q13 13 31 21q17 7 37 7q41 0 69 -28zM319 1655q0 -21 -8 -38q-8 -18 -21 -30q-14 -13 -31 -20q-18 -8 -38 -8q-40 0 -68 28t-28 68t28 68t68 28q20 0 38 -7q17 -8 31 -21q13 -13 21 -30z" />
    <glyph glyph-name="yacute" unicode="&#xfd;" horiz-adv-x="612" 
d="M575 1501q-18 -109 -37 -224q-20 -116 -40 -233t-39 -232q-20 -116 -37 -226q3 -124 14 -247q10 -123 15 -241l-160 -8q-2 49 -3 78q-1 28 -2 50t-2 46q-1 23 -3 62q-2 38 -5 99t-8 159q-34 132 -58 226q-25 93 -42 160q-17 66 -28 111q-12 44 -21 78t-16 62
q-8 28 -17 62q-9 33 -20 77q-12 44 -29 110l153 39l138 -532l90 549zM200 1546l-53 109q44 21 85 42l80 40q39 20 80 40q40 20 83 42q6 -12 13 -27l14 -30q7 -15 14 -28l12 -24z" />
    <glyph glyph-name="thorn" unicode="&#xfe;" horiz-adv-x="514" 
d="M489 877q0 -55 -20 -104t-55 -86q-36 -38 -84 -61t-103 -26l23 -553l-158 -6l-67 1552l159 6l19 -446h12q56 0 106 -22t88 -59q37 -38 59 -88zM219 758q48 6 80 38q31 31 31 81q0 24 -9 45t-24 37q-16 15 -37 25q-21 9 -45 9h-4z" />
    <glyph glyph-name="ydieresis" unicode="&#xff;" horiz-adv-x="612" 
d="M575 1501q-18 -109 -37 -224q-20 -116 -40 -233t-39 -232q-20 -116 -37 -226q3 -124 14 -247q10 -123 15 -241l-160 -8q-2 49 -3 78q-1 28 -2 50t-2 46q-1 23 -3 62q-2 38 -5 99t-8 159q-34 132 -58 226q-25 93 -42 160q-17 66 -28 111q-12 44 -21 78t-16 62
q-8 28 -17 62q-9 33 -20 77q-12 44 -29 110l153 39l138 -532l90 549zM500 1647q0 -40 -28 -68t-69 -28q-20 0 -37 8q-18 7 -31 20q-14 13 -22 31q-8 17 -8 37t8 38q8 17 22 30q13 13 31 21q17 7 37 7q41 0 69 -28zM262 1647q0 -21 -8 -38q-8 -18 -21 -30q-14 -13 -31 -20
q-18 -8 -38 -8q-40 0 -68 28t-28 68t28 68t68 28q20 0 38 -7q17 -8 31 -21q13 -13 21 -30z" />
    <glyph glyph-name="dotlessi" unicode="&#x131;" horiz-adv-x="244" 
d="M59 -35l-49 1503l160 5l47 -1502z" />
    <glyph glyph-name="OE" unicode="&#x152;" horiz-adv-x="1538" 
d="M1141 -61l-39 340q-35 -73 -83 -137q-49 -64 -110 -111q-62 -48 -136 -76q-74 -27 -159 -27q-98 0 -179 34q-82 35 -147 94q-66 59 -115 137t-82 165t-49 178q-17 90 -17 175q0 83 17 173t51 177q33 87 83 166q50 78 116 137q65 59 146 94q80 35 176 35q112 0 202 -43
q90 -44 165 -125l-14 111l350 49l22 -158l-196 -27l18 -163l275 53l28 -156l-284 -55l98 -854l207 39l28 -156zM1042 711q0 61 -11 131q-11 69 -34 139q-23 69 -58 133t-82 113q-48 49 -108 79q-61 29 -135 29t-134 -29q-61 -29 -108 -78q-48 -49 -83 -113q-36 -64 -59 -133
q-23 -70 -34 -140q-12 -70 -12 -131t12 -131q11 -70 34 -139t59 -133q35 -64 83 -113q47 -49 108 -78q60 -29 134 -29q73 0 134 29q60 29 108 78q47 49 82 113t58 133t35 139z" />
    <glyph glyph-name="oe" unicode="&#x153;" horiz-adv-x="1536" 
d="M1221 987l-41 -858l209 2l2 -158l-379 -6l18 340q-41 -57 -90 -106q-50 -49 -108 -85q-58 -37 -124 -58t-139 -21q-96 0 -173 31q-78 30 -138 82q-61 52 -105 123q-44 70 -72 150q-29 80 -42 165q-14 85 -14 168q0 110 19 216q19 105 56 199t91 173q53 78 123 135
q69 56 153 88t182 32q64 0 127 -17q62 -17 119 -48q56 -32 104 -75q47 -44 82 -97l4 111l355 -11l-4 -157l-199 4l-8 -162l278 4l4 -158zM1053 877q0 59 -8 123q-9 64 -28 126t-49 119q-30 56 -73 99q-43 42 -99 67q-57 25 -128 25q-78 0 -144 -25t-120 -70t-95 -107
q-41 -63 -69 -139t-42 -162t-14 -177q0 -59 9 -123q8 -65 27 -127t49 -118t73 -98q43 -43 99 -68t128 -25q65 0 123 25t108 67q49 42 90 98q40 55 71 116t52 124q20 62 29 118q5 32 8 66z" />
    <glyph glyph-name="Scaron" unicode="&#x160;" horiz-adv-x="514" 
d="M473 1296q-35 0 -62 -7q-28 -7 -48 -22q-20 -16 -30 -42q-11 -26 -11 -64v-17q0 -8 2 -16l88 -624q6 -44 6 -86q0 -72 -23 -135t-65 -110q-43 -47 -103 -74t-135 -27q-14 0 -27 1q-14 1 -28 3l26 155q8 0 15 -1q6 -1 14 -1q42 0 74 15q31 15 52 41t32 61q10 35 10 74
q0 15 -1 32q-1 16 -3 31l-88 623q-2 15 -3 30q-1 14 -1 29q0 73 23 128q23 54 65 91q41 36 99 54q57 18 126 18zM373 1479l-267 225l78 93l189 -160l186 160l78 -93z" />
    <glyph glyph-name="scaron" unicode="&#x161;" horiz-adv-x="434" 
d="M397 395q0 -73 -25 -134q-26 -61 -71 -105t-106 -68q-62 -25 -134 -25l5 158q40 0 72 13t55 36q22 23 35 56q12 32 12 71q0 25 -5 50q-6 24 -12 49l-170 606q-8 26 -12 54q-4 27 -4 54q0 61 22 111q21 49 59 86q37 36 88 58q51 21 109 26l15 -158q-28 -2 -52 -10
q-25 -8 -43 -23q-19 -15 -29 -37q-11 -22 -11 -53q0 -17 3 -33q2 -17 7 -32l172 -606q9 -35 15 -71zM232 1536l-267 225l78 93l189 -160l186 160l78 -93z" />
    <glyph glyph-name="Ydieresis" unicode="&#x178;" horiz-adv-x="612" 
d="M575 1427q-17 -66 -29 -110t-20 -77q-9 -34 -16 -62q-8 -28 -17 -61q-9 -34 -20 -79q-12 -45 -29 -111t-41 -159q-25 -94 -59 -225q-5 -98 -7 -159q-3 -61 -5 -99q-2 -39 -3 -62q-1 -24 -2 -46t-2 -50q-1 -29 -3 -78l-160 6q6 116 12 242t14 250q-31 227 -72 459
q-42 231 -79 454l158 25l88 -549l139 532zM523 1643q0 -40 -28 -68t-69 -28q-20 0 -37 8q-18 7 -31 20q-14 13 -22 31q-8 17 -8 37t8 38q8 17 22 30q13 13 31 21q17 7 37 7q41 0 69 -28zM285 1643q0 -21 -8 -38q-8 -18 -21 -30q-14 -13 -31 -20q-18 -8 -38 -8q-40 0 -68 28
t-28 68t28 68t68 28q20 0 38 -7q17 -8 31 -21q13 -13 21 -30z" />
    <glyph glyph-name="Zcaron" unicode="&#x17d;" horiz-adv-x="496" 
d="M74 -70l159 1366l-196 29l20 156l351 -47l-152 -1307l172 33l31 -156zM281 1507l-267 225l78 93l189 -160l186 160l78 -93z" />
    <glyph glyph-name="zcaron" unicode="&#x17e;" horiz-adv-x="496" 
d="M438 -49l-350 49l152 1305l-172 -33l-31 155l385 74l-160 -1366l197 -26zM250 1534l-267 225l78 93l189 -160l186 160l78 -93z" />
    <glyph glyph-name="florin" unicode="&#x192;" horiz-adv-x="1505" 
d="M1303 217q-45 -46 -107 -72q-63 -26 -129 -26q-34 -20 -74 -29q-40 -10 -82 -10h-18q-32 -16 -68 -24q-36 -9 -71 -9q-37 0 -73 9q-36 8 -67 24h-20q-40 0 -79 10q-40 9 -77 29q-66 0 -128 26t-105 72q-32 24 -61 53t-51 62t-35 71q-13 37 -13 78q0 60 28 114
q27 53 70 95q-20 42 -32 87q-13 45 -13 91q0 103 53 191q52 87 142 153q90 65 207 104q117 38 254 38q134 0 253 -38q118 -39 207 -104q91 -66 143 -153q52 -88 52 -191q0 -46 -12 -91q-13 -45 -35 -87q43 -42 72 -95q28 -54 28 -114q0 -41 -13 -78q-13 -38 -34 -71
q-22 -33 -51 -62zM1126 162q42 8 80 29t67 52q28 30 45 70q17 39 17 84q0 37 -12 72q-12 34 -35 63q-2 5 -3 8t-1 5q0 8 6 13t13 5q3 0 8 -1q4 -2 6 -7q28 -34 42 -74q13 -40 13 -84q0 -20 -3 -40q-3 -21 -9 -38q29 32 48 73t19 89q0 57 -29 106t-71 87q-4 4 -4 14q0 2 1 3
t1 3q22 42 35 85q12 43 12 89q0 93 -47 174q-48 80 -133 142t-196 98q-112 35 -242 35t-242 -35q-113 -36 -197 -98q-83 -62 -131 -142q-49 -81 -49 -174q0 -27 8 -56q7 -29 17 -54q9 -25 17 -43q7 -19 7 -25q0 -5 -1 -9q-2 -5 -5 -7q-42 -38 -70 -87t-28 -106q0 -48 19 -89
t46 -73q-5 17 -6 38q-2 20 -2 40q0 44 14 84q13 40 37 74q7 8 17 8q5 0 12 -5q6 -5 6 -13q0 -3 -6 -13q-23 -29 -34 -63q-11 -35 -11 -72q0 -45 17 -84q16 -40 44 -70q28 -31 66 -52t80 -29q-40 37 -65 87q-25 49 -25 109q0 45 16 87t45 79q5 3 8 6q3 2 7 2q8 0 13 -5
q5 -6 5 -15q0 -4 -6 -10q-25 -31 -38 -68t-13 -76q0 -48 19 -89q18 -42 49 -73t73 -51q41 -20 86 -26q-48 37 -75 91q-27 53 -27 116q0 20 16 20q6 0 12 -4q6 -5 6 -16q0 -54 23 -99q22 -45 60 -77q37 -32 86 -50q48 -18 100 -18q51 0 99 18t86 50q37 32 60 77t23 99
q0 11 5 16q5 4 13 4q7 0 13 -4q6 -5 6 -16q0 -63 -29 -116q-30 -54 -78 -91q46 6 88 26t74 51q31 31 50 73q18 41 18 89q0 39 -14 76t-40 68q-2 4 -2 10q0 20 17 20q3 0 6 -2l6 -6q29 -37 46 -79q16 -42 16 -87q0 -60 -24 -109zM856 795v-27q5 2 12 2h15q19 0 40 -4
q20 -4 37 -13t29 -23t15 -34q20 10 46 13q25 2 48 2q29 0 56 -7t48 -21q20 -14 33 -35q12 -22 12 -50q0 -29 -16 -55q-7 -11 -17 -11q-6 0 -12 7q-6 6 -6 12q0 7 6 10q5 9 8 17q2 8 2 20q0 34 -28 55t-70 21t-76 -11q-34 -12 -58 -29q-24 -18 -37 -37q-13 -20 -13 -36
q0 -10 3 -19q2 -10 10 -18t23 -13q14 -5 38 -5q26 0 55 6q0 2 2 2h4q18 0 18 -20q-3 -29 -18 -55q-15 -27 -43 -46q-23 -18 -54 -29q-32 -12 -67 -12q-42 0 -81 17q-40 16 -66 47q-28 -31 -68 -47q-40 -17 -80 -17q-35 0 -66 12q-31 11 -57 29q-24 19 -40 46q-16 26 -21 55
q0 9 6 15q6 5 12 5h2q2 0 4 -2q28 -6 56 -6q25 0 41 5q15 5 23 13t11 18q3 9 3 19q0 15 -13 35q-14 20 -39 37t-60 29q-36 12 -81 12q-37 0 -64 -21q-28 -21 -28 -55q0 -12 3 -20q2 -8 7 -17q4 -4 4 -10t-5 -12q-5 -7 -13 -7t-17 11q-6 12 -11 26t-5 29q0 28 13 50
q12 21 33 35t49 21q27 7 57 7q21 0 47 -2q26 -3 45 -13q2 20 14 34t30 23q17 9 37 13t38 4h16q7 0 16 -2q-2 8 -2 15v18q0 21 2 42q1 20 6 36q11 32 21 32q16 0 22 -32q7 -18 7 -43l-33 -41h35q0 -13 -1 -26t-3 -24q32 -22 32 -55q0 -32 -16 -48q-17 -16 -37 -26
q-22 -9 -37 -20q-16 -11 -16 -25q0 -17 13 -28q12 -12 30 -19q18 -8 39 -11t39 -3t39 3t39 11q18 7 30 19q12 11 12 28q0 14 -15 25t-40 20q-20 10 -36 25q-17 15 -17 49q0 16 10 30q9 14 25 25q-6 22 -6 56q0 21 3 42q2 20 5 36q6 15 11 24q5 8 11 8q8 0 13 -8q4 -9 10 -24
l8 -45l-37 -39h37zM879 512q-26 -20 -61 -28q-36 -9 -64 -9q-14 0 -30 2q-17 2 -33 7q-17 4 -32 11q-16 7 -28 17q-29 -20 -63 -31q-34 -12 -66 -12h-20q-8 0 -17 2q17 -40 57 -61q39 -21 84 -21q37 0 74 17q36 17 57 51q5 5 8 7q2 1 9 1q11 0 14 -8q20 -34 58 -51
q37 -17 75 -17q21 0 43 6q21 5 40 16q19 10 34 25q14 15 22 35q-8 -2 -17 -2h-19q-32 0 -65 12zM621 748q-11 0 -27 -3q-17 -3 -32 -10q-16 -7 -27 -18t-11 -27t10 -27q9 -12 24 -19q14 -8 31 -11q17 -4 32 -4q12 0 29 3q16 3 31 10t26 19q10 11 10 29q0 15 -10 26
q-10 10 -25 18q-15 7 -31 11zM887 748q-11 0 -27 -3q-17 -3 -32 -10t-26 -18t-11 -27t10 -27q9 -12 24 -19q14 -8 31 -11q16 -4 31 -4q12 0 29 3q16 3 31 11q15 7 26 19q10 11 10 28q0 15 -10 26q-11 10 -26 18q-15 7 -31 11zM614 1018q-48 -11 -88 -27q-41 -16 -70 -40
q-30 -24 -46 -56q-17 -32 -17 -74q0 -14 2 -26t2 -29q0 -8 -5 -13t-13 -5q-5 0 -10 4q-5 3 -7 12q-3 14 -3 28q-1 14 -1 29q0 62 24 118q23 56 67 101q-35 20 -61 52t-34 69v8q0 8 5 13q5 4 12 4q5 0 10 -3q4 -4 6 -14q8 -28 26 -50q17 -23 41 -39t52 -24q27 -9 55 -9
q27 0 54 8q26 7 49 21q22 14 39 35q16 21 24 48q3 6 8 8t10 2q7 0 13 -2t6 -8q8 -27 26 -48q17 -21 40 -35q22 -14 49 -21q26 -8 53 -8q28 0 56 9q28 8 52 24q23 16 41 39q17 22 23 50q2 10 7 14q5 3 11 3t12 -4q5 -5 5 -13v-8q-8 -35 -30 -64q-23 -30 -54 -50
q45 -47 70 -104q24 -57 24 -122q0 -15 -1 -29t-3 -28q-3 -9 -8 -12q-6 -4 -11 -4q-20 0 -20 22q3 14 6 27q2 12 2 24q0 45 -15 78t-40 56q-26 23 -61 38q-36 14 -76 21q-26 4 -51 12q-26 7 -49 18t-43 28q-20 16 -34 40q-21 -37 -55 -61z" />
    <glyph glyph-name="circumflex" unicode="&#x2c6;" horiz-adv-x="633" 
d="M504 1602l-187 157l-188 -160l-78 93q68 58 133 113t133 112l265 -225z" />
    <glyph glyph-name="caron" unicode="&#x2c7;" horiz-adv-x="641" 
d="M322 1585l-267 225l78 93l189 -160l186 160l78 -93z" />
    <glyph glyph-name="tilde" unicode="&#x2dc;" horiz-adv-x="629" 
d="M401 1739q22 0 38 11t24 30l119 -17q-7 -32 -24 -58q-17 -27 -40 -47q-24 -20 -53 -31q-30 -11 -62 -11t-61 11q-30 11 -53 24q-19 8 -35 15q-17 7 -31 7q-17 0 -33 -12q-16 -13 -24 -27q-32 5 -60 11t-59 12q8 29 25 55q16 25 40 44q23 18 51 29t60 11t61 -11t52 -24
q18 -11 36 -16z" />
    <glyph glyph-name="endash" unicode="&#x2013;" horiz-adv-x="694" 
d="M25 631v160h645v-160h-645z" />
    <glyph glyph-name="emdash" unicode="&#x2014;" horiz-adv-x="1391" 
d="M25 631v160h1341v-160h-1341z" />
    <glyph glyph-name="quoteleft" unicode="&#x2018;" horiz-adv-x="397" 
d="M236 1143l-211 368l137 80l211 -370z" />
    <glyph glyph-name="quoteright" unicode="&#x2019;" horiz-adv-x="397" 
d="M162 1143l-137 78l211 370l137 -80z" />
    <glyph glyph-name="quotesinglbase" unicode="&#x201a;" horiz-adv-x="397" 
d="M162 -250l-137 78l211 371l137 -80z" />
    <glyph glyph-name="quotedblleft" unicode="&#x201c;" horiz-adv-x="602" 
d="M440 1143l-211 368l138 80l211 -370zM236 1102l-211 368l137 80l211 -370z" />
    <glyph glyph-name="quotedblright" unicode="&#x201d;" horiz-adv-x="602" 
d="M367 1102l-138 78l211 370l138 -80zM162 1143l-137 78l211 370l137 -80z" />
    <glyph glyph-name="quotedblbase" unicode="&#x201e;" horiz-adv-x="602" 
d="M367 -250l-138 78l211 371l138 -80zM162 -209l-137 78l211 371l137 -80z" />
    <glyph glyph-name="dagger" unicode="&#x2020;" horiz-adv-x="580" 
d="M369 1051v-1250h-158v1250h-186v157h186v322h158v-322h186v-157h-186z" />
    <glyph glyph-name="daggerdbl" unicode="&#x2021;" horiz-adv-x="580" 
d="M369 123v-322h-158v322h-186v158h186v770h-186v157h186v322h158v-322h186v-157h-186v-770h186v-158h-186z" />
    <glyph glyph-name="bullet" unicode="&#x2022;" horiz-adv-x="627" 
d="M602 651q0 -60 -22 -112q-23 -53 -62 -92q-40 -39 -92 -62q-53 -23 -113 -23t-112 23q-53 23 -92 62t-61 92q-23 52 -23 112t23 113q22 52 61 92q39 39 92 62q52 22 112 22t113 -22q52 -23 92 -62q39 -40 62 -92z" />
    <glyph glyph-name="ellipsis" unicode="&#x2026;" horiz-adv-x="1004" 
d="M979 78q0 -31 -12 -58t-32 -48q-21 -20 -48 -32t-58 -12q-30 0 -57 12q-28 12 -48 32q-20 21 -32 48t-12 58t12 58q12 26 33 46q20 20 47 32q27 11 57 11q31 0 58 -11q27 -12 48 -32q20 -20 32 -46zM651 78q0 -31 -12 -58t-32 -48q-20 -20 -47 -32t-58 -12t-58 12t-47 32
q-21 21 -33 48t-12 58t12 58q12 26 33 46t48 32q27 11 57 11q31 0 58 -11q27 -12 47 -32t32 -46zM324 78q0 -31 -12 -58t-32 -48q-21 -20 -48 -32t-58 -12t-58 12t-47 32q-21 21 -32 48q-12 27 -12 58t12 58q12 26 33 46q20 20 47 32q27 11 57 11q31 0 58 -11q27 -12 48 -32
q20 -20 32 -46z" />
    <glyph glyph-name="perthousand" unicode="&#x2030;" horiz-adv-x="1755" 
d="M1731 424q0 -61 -18 -125q-19 -64 -54 -117q-36 -53 -89 -87t-122 -34q-45 0 -82 15q-38 14 -69 39t-54 59q-24 33 -41 72q-12 -48 -35 -92q-24 -44 -57 -78q-34 -35 -77 -55q-44 -21 -97 -21q-69 0 -122 34t-88 87q-36 52 -54 117q-19 64 -19 124t19 124t55 117
q36 52 89 86q52 34 120 34q44 0 82 -15t69 -40q31 -26 55 -60t40 -71q12 47 36 92q23 44 57 79q34 34 78 55q43 21 95 21q67 0 120 -34t89 -86q36 -53 55 -116zM1573 424q0 27 -7 62t-22 67q-15 31 -38 53q-24 21 -58 21t-57 -21q-24 -22 -39 -53q-15 -32 -22 -67t-7 -62
q0 -26 7 -61t23 -66q15 -32 39 -54q23 -22 56 -22t57 22q23 22 39 54q15 31 22 66zM1061 362q0 27 -7 62t-22 67q-15 31 -38 53q-24 21 -58 21t-57 -21q-24 -22 -39 -53q-15 -32 -22 -67t-7 -62q0 -26 7 -60q7 -35 23 -66q15 -32 39 -54q23 -22 56 -22t57 22q23 22 39 54
q15 31 22 66zM592 1178q0 -61 -18 -125t-54 -117t-89 -87t-122 -34t-122 34q-53 33 -89 86t-54 117q-19 64 -19 126q0 60 19 124q19 63 56 116q36 52 89 86q52 34 120 34q67 0 120 -34t89 -86q36 -53 55 -116zM432 1178q0 26 -7 61q-7 34 -21 66q-15 31 -38 53
q-24 22 -57 22t-56 -22q-24 -22 -39 -53q-16 -32 -23 -66q-7 -35 -7 -61t7 -61t23 -66q15 -32 39 -54q23 -22 56 -22t57 22q23 22 38 54q14 31 21 66zM397 -31l-147 62l598 1442l145 -62z" />
    <glyph glyph-name="guilsinglleft" unicode="&#x2039;" horiz-adv-x="418" 
d="M274 440l-249 293l249 291l119 -102l-160 -189l160 -188z" />
    <glyph glyph-name="guilsinglright" unicode="&#x203a;" horiz-adv-x="418" 
d="M143 440l-118 105l159 188l-159 189l118 102l250 -291z" />
    <glyph glyph-name="Euro" unicode="&#x20ac;" horiz-adv-x="942" 
d="M870 1225q-18 27 -41 54q-23 26 -50 47t-58 35q-32 13 -68 13q-48 0 -89 -22q-41 -23 -75 -60q-35 -37 -62 -84q-27 -48 -47 -98q-21 -50 -34 -98q-14 -49 -20 -88h473l-39 -158h-451v-66h434l-38 -157h-379q6 -39 20 -87q13 -49 34 -99q20 -50 48 -98q27 -48 61 -85
t75 -59q41 -23 89 -23q43 0 79 17q36 16 65 43q29 26 53 60q24 33 43 67h18v-236q-30 -26 -59 -47q-29 -20 -60 -34t-65 -22t-74 -8q-74 0 -136 28q-63 28 -114 76q-51 47 -91 109q-40 61 -69 129q-30 68 -49 138q-19 69 -28 131h-141l38 157h89v66h-127l38 158h103
q9 62 28 132q19 69 48 137q29 67 69 129q40 61 91 108t114 75q62 27 137 27q78 0 145 -32q66 -32 120 -85z" />
    <glyph glyph-name="trademark" unicode="&#x2122;" horiz-adv-x="678" 
d="M557 774v473l-31 -86h-82l-32 86v-473h-95v758h91l77 -207l76 207h92v-758h-96zM242 1411l-62 2l-41 -649l-94 8l41 649l-61 2l6 97l217 -15z" />
    </font>
</defs>
</svg>
